# Blender v2.77 (sub 0) OBJ File: ''
# www.blender.org
o MEP_GiantShroom_02
v -1.102637 2.893203 -0.363012
v -0.848094 3.040620 -0.882981
v -1.079641 2.721480 -0.117515
v -0.426837 3.110496 -1.338131
v 0.417517 3.085796 -1.632260
v -0.607249 3.005101 -1.126615
v -0.360012 2.451639 1.108032
v -0.268261 2.946578 0.347730
v -0.824831 2.554181 0.670834
v -1.090050 2.697557 0.161178
v -0.328209 3.134003 -0.089960
v 0.394922 2.952423 0.500466
v 0.436103 3.284179 -0.749429
v 0.414119 3.244680 0.074336
v 0.382213 2.454864 1.286547
v -0.571373 2.423716 0.842935
v 0.387964 2.409128 1.172265
v 0.418638 3.000746 -1.557992
v 0.393730 2.340334 -0.150301
v 2.028972 2.786744 -0.401001
v 2.042543 2.631423 -0.066917
v 1.781897 2.943259 -1.035641
v 1.331698 3.043544 -1.459581
v 1.529375 2.923856 -1.271618
v 1.177073 2.608499 1.068583
v 1.712620 2.636143 0.742511
v 1.132291 3.013297 0.350653
v 2.034019 2.650346 0.264595
v 1.217462 3.112191 -0.131031
v 1.435527 2.570619 0.863529
v 0.310037 2.403702 -0.048039
v 0.317940 2.453549 -0.208686
v 0.101297 2.229673 -0.146686
v 0.489950 2.450385 -0.217258
v 0.377923 2.310673 -0.450326
v 0.481988 2.406834 -0.056033
v 0.677356 2.235288 -0.202364
v 0.382010 2.163677 0.054891
v 0.201392 1.880620 -0.107366
v 0.466748 1.890681 -0.162438
v 0.181061 0.937722 0.058402
v 0.271268 1.946871 -0.356604
v 0.475435 1.940910 -0.363521
v 0.368792 0.923392 -0.059467
v -0.331888 -0.108656 -0.205929
v -0.400507 -0.192526 0.083246
v 0.095097 0.930670 -0.202979
v 0.295334 -0.120434 -0.202950
v 0.051257 -0.137956 -0.344381
v 0.337374 0.917554 -0.254665
v -0.032580 -0.132511 0.261101
v 0.316044 -0.148571 0.032340
vt 0.5683 0.5199
vt 0.7417 0.5707
vt 0.4841 0.5392
vt 0.8698 0.6591
vt 0.9986 0.9994
vt 0.7992 0.6327
vt 0.2565 0.5774
vt 0.1868 0.3969
vt 0.3443 0.4884
vt 0.3855 0.3679
vt 0.1872 0.2886
vt 0.3776 0.2395
vt 0.0036 0.4453
vt 0.2261 0.0493
vt 0.0021 0.1660
vt 0.0002 0.0039
vt 0.3173 0.1254
vt 0.0029 0.3306
vt 0.0029 0.6458
vt 0.1055 0.6946
vt 0.2301 0.5892
vt 0.1802 0.6534
vt 0.3982 0.5262
vt 0.0006 0.9992
vt 0.0304 0.9993
vt 0.9534 0.9994
vt 0.4973 0.9992
vt 0.5683 0.5199
vt 0.4841 0.5392
vt 0.7417 0.5707
vt 0.8698 0.6591
vt 0.7992 0.6327
vt 0.2565 0.5774
vt 0.3443 0.4884
vt 0.1868 0.3969
vt 0.3855 0.3679
vt 0.3776 0.2395
vt 0.1872 0.2886
vt 0.2261 0.0493
vt 0.3173 0.1254
vt 0.1055 0.6946
vt 0.1802 0.6534
vt 0.2301 0.5892
vt 0.3982 0.5262
vt 0.5690 0.4669
vt 0.5233 0.4629
vt 0.5544 0.4102
vt 0.4766 0.4681
vt 0.4977 0.4119
vt 0.4310 0.4815
vt 0.4421 0.4200
vt 0.3970 0.5156
vt 0.3644 0.4442
vt 0.6291 0.4244
vt 0.5844 0.3399
vt 0.6537 0.3312
vt 0.5782 0.0591
vt 0.4028 0.3508
vt 0.5139 0.3403
vt 0.4593 0.3440
vt 0.3921 0.0768
vt 0.9570 0.2635
vt 0.9593 0.3536
vt 0.6645 0.2772
vt 0.9550 0.0882
vt 0.9602 0.1614
vt 0.6664 0.1140
vt 0.5059 0.0609
vt 0.4374 0.0667
vt 0.6422 0.0627
vt 0.9521 0.4549
vt 0.6706 0.4443
vt 0.6658 0.0156
vt 0.6691 0.5455
vt 0.9471 0.5868
vt 0.9534 0.0123
vn -0.9512 0.2185 -0.2179
vn -0.8283 0.3298 -0.4530
vn -0.6957 -0.6876 -0.2079
vn -0.4931 0.2912 -0.8198
vn -0.0571 0.2725 -0.9605
vn -0.5148 -0.6032 -0.6092
vn -0.3929 -0.1842 0.9009
vn -0.2425 0.8492 0.4691
vn -0.8484 -0.0667 0.5252
vn -0.9414 -0.0729 0.3294
vn -0.2544 0.9429 0.2151
vn -0.0553 0.8397 0.5402
vn 0.0377 0.9988 -0.0325
vn -0.0101 0.9595 0.2814
vn 0.0203 -0.1192 0.9927
vn -0.4228 -0.8687 0.2582
vn 0.0866 -0.9669 0.2400
vn -0.0747 -0.7750 -0.6276
vn -0.0175 -0.9804 -0.1963
vn 0.9582 0.1408 -0.2491
vn 0.7753 -0.6252 -0.0890
vn 0.8628 0.1845 -0.4707
vn 0.3963 0.2563 -0.8816
vn 0.4644 -0.5927 -0.6581
vn 0.3496 0.0736 0.9340
vn 0.7371 -0.0500 0.6739
vn 0.2163 0.9025 0.3726
vn 0.9104 -0.1211 0.3956
vn 0.2785 0.9540 0.1107
vn 0.3231 -0.8651 0.3837
vn -0.4670 0.5077 0.7240
vn -0.5229 0.7808 -0.3421
vn -0.9728 0.2013 0.1150
vn 0.5419 0.7629 -0.3527
vn -0.0606 0.3729 -0.9259
vn 0.5542 0.4063 0.7265
vn 0.9965 0.0835 -0.0013
vn 0.0765 -0.0932 0.9927
vn -0.7707 -0.1438 0.6207
vn 0.7785 -0.3112 0.5450
vn -0.2489 0.2378 0.9389
vn -0.5744 -0.1144 -0.8105
vn 0.6014 -0.2712 -0.7515
vn 0.9039 -0.0310 0.4266
vn -0.7941 0.3277 -0.5118
vn -0.8190 0.3824 0.4277
vn -0.8207 0.2150 -0.5293
vn 0.8467 -0.0668 -0.5279
vn 0.0334 0.0585 -0.9977
vn 0.5829 -0.0712 -0.8094
vn -0.0298 0.1918 0.9810
vn 0.8785 -0.0002 0.4778
s 1
f 1/1/1 2/2/2 3/3/3
f 4/4/4 5/5/5 6/6/6
f 7/7/7 8/8/8 9/9/9
f 10/10/10 11/11/11 1/12/1
f 8/8/8 7/7/7 12/13/12
f 8/8/8 11/11/11 10/10/10
f 4/14/4 13/15/13 5/16/5
f 11/11/11 4/14/4 2/17/2
f 8/8/8 12/13/12 14/18/14
f 14/18/14 13/15/13 4/14/4
f 12/13/12 7/7/7 15/19/15
f 8/8/8 10/10/10 9/9/9
f 11/11/11 2/17/2 1/12/1
f 11/11/11 14/18/14 4/14/4
f 11/11/11 8/8/8 14/18/14
f 7/20/7 9/21/9 16/22/16
f 9/21/9 10/23/10 16/22/16
f 2/2/2 4/4/4 6/6/6
f 10/23/10 1/1/1 3/3/3
f 15/24/15 7/20/7 17/25/17
f 6/6/6 18/26/18 19/27/19
f 16/22/16 3/3/3 19/27/19
f 17/25/17 16/22/16 19/27/19
f 3/3/3 6/6/6 19/27/19
f 2/2/2 6/6/6 3/3/3
f 5/5/5 18/26/18 6/6/6
f 10/23/10 3/3/3 16/22/16
f 7/20/7 16/22/16 17/25/17
f 20/28/20 21/29/21 22/30/22
f 23/31/23 24/32/24 5/5/5
f 25/33/25 26/34/26 27/35/27
f 28/36/28 20/37/20 29/38/29
f 12/13/12 25/33/25 27/35/27
f 27/35/27 28/36/28 29/38/29
f 23/39/23 5/16/5 13/15/13
f 29/38/29 22/40/22 23/39/23
f 27/35/27 14/18/14 12/13/12
f 14/18/14 23/39/23 13/15/13
f 12/13/12 15/19/15 25/33/25
f 27/35/27 26/34/26 28/36/28
f 29/38/29 20/37/20 22/40/22
f 29/38/29 23/39/23 14/18/14
f 29/38/29 14/18/14 27/35/27
f 25/41/25 30/42/30 26/43/26
f 26/43/26 30/42/30 28/44/28
f 22/30/22 24/32/24 23/31/23
f 28/44/28 21/29/21 20/28/20
f 15/24/15 17/25/17 25/41/25
f 24/32/24 19/27/19 18/26/18
f 30/42/30 19/27/19 21/29/21
f 17/25/17 19/27/19 30/42/30
f 21/29/21 19/27/19 24/32/24
f 22/30/22 21/29/21 24/32/24
f 5/5/5 24/32/24 18/26/18
f 28/44/28 30/42/30 21/29/21
f 25/41/25 17/25/17 30/42/30
f 31/45/31 32/46/32 33/47/33
f 32/46/32 34/48/34 35/49/35
f 34/48/34 36/50/36 37/51/37
f 36/50/36 31/52/31 38/53/38
f 38/54/38 33/47/33 39/55/39
f 40/56/40 39/55/39 41/57/41
f 37/51/37 38/53/38 40/58/40
f 33/47/33 35/49/35 42/59/42
f 35/49/35 37/51/37 43/60/43
f 32/46/32 35/49/35 33/47/33
f 34/48/34 37/51/37 35/49/35
f 36/50/36 38/53/38 37/51/37
f 31/45/31 33/47/33 38/54/38
f 40/56/40 38/54/38 39/55/39
f 43/60/43 40/58/40 44/61/44
f 43/60/43 37/51/37 40/58/40
f 39/55/39 33/47/33 42/59/42
f 42/59/42 35/49/35 43/60/43
f 45/62/45 46/63/46 47/64/47
f 48/65/48 49/66/49 50/67/50
f 39/55/39 42/59/42 47/68/47
f 42/59/42 43/60/43 50/69/50
f 44/70/44 40/56/40 41/57/41
f 50/69/50 43/60/43 44/61/44
f 41/57/41 39/55/39 47/68/47
f 47/68/47 42/59/42 50/69/50
f 45/62/45 47/64/47 49/66/49
f 51/71/51 41/72/41 46/63/46
f 50/67/50 44/73/44 48/65/48
f 44/74/44 41/72/41 52/75/52
f 46/63/46 41/72/41 47/64/47
f 44/73/44 52/76/52 48/65/48
f 41/72/41 51/71/51 52/75/52
f 47/64/47 50/67/50 49/66/49
