# Blender v2.77 (sub 0) OBJ File: ''
# www.blender.org
o MEP_GiantShroom_03
v -0.017537 2.592893 -0.987961
v 0.659035 2.533441 -0.962560
v -0.255313 2.457922 -0.797366
v 1.287525 2.610187 -0.645248
v 1.733106 2.533092 0.214603
v 1.027038 2.424650 -0.669763
v -1.428559 2.609480 0.402121
v -0.525809 3.332277 0.155971
v -1.185374 2.627619 -0.215522
v -0.658845 2.637791 -0.646984
v 0.167463 3.292710 -0.217388
v -0.630854 3.369896 0.988449
v 1.050833 3.295134 0.417745
v 0.136236 3.660960 0.697596
v -1.277475 2.619372 1.251220
v -1.238736 2.479972 0.037368
v -1.166010 2.471022 1.214451
v 1.567020 2.409770 0.274396
v 0.219561 2.400573 0.737037
v 1.072098 2.639426 2.189369
v 0.781141 2.538683 2.224365
v 1.574801 2.582637 1.768741
v 1.817376 2.648496 1.152566
v 1.694740 2.491019 1.346538
v -0.834608 2.640995 1.968673
v -0.290674 2.640560 2.355447
v -0.020297 3.312047 1.654999
v 0.400987 2.639500 2.421202
v 0.778922 3.310609 1.481270
v -0.467256 2.554189 2.140857
v 0.075302 2.556383 0.663255
v 0.290641 2.559270 0.584371
v 0.091472 2.299783 0.436505
v 0.361218 2.558194 0.802079
v 0.520246 2.294554 0.612050
v 0.150838 2.557978 0.873134
v 0.344141 2.304527 1.036370
v -0.048112 2.303931 0.841269
v 0.023760 1.938772 0.658776
v 0.169459 1.941791 0.899758
v -0.085448 0.937178 0.480754
v 0.307229 1.936233 0.625404
v 0.377444 1.939642 0.829103
v 0.092373 0.929346 0.627226
v 0.104027 -0.110126 -0.380015
v -0.206592 -0.202641 -0.346248
v 0.131223 0.949423 0.338905
v 0.300603 -0.122923 0.223646
v 0.363644 -0.139713 -0.066108
v 0.253846 0.939358 0.553536
v -0.269944 -0.141844 0.063998
v 0.071343 -0.155648 0.321166
vt 0.5683 0.5199
vt 0.7417 0.5707
vt 0.4841 0.5392
vt 0.8698 0.6591
vt 0.9986 0.9994
vt 0.7992 0.6327
vt 0.2565 0.5774
vt 0.1868 0.3969
vt 0.3443 0.4884
vt 0.3855 0.3679
vt 0.1872 0.2886
vt 0.3776 0.2395
vt 0.0036 0.4453
vt 0.2261 0.0493
vt 0.0021 0.1660
vt 0.0002 0.0039
vt 0.3173 0.1254
vt 0.0029 0.3306
vt 0.0029 0.6458
vt 0.1055 0.6946
vt 0.2301 0.5892
vt 0.1802 0.6534
vt 0.3982 0.5262
vt 0.0006 0.9992
vt 0.0304 0.9993
vt 0.9534 0.9994
vt 0.4973 0.9992
vt 0.5683 0.5199
vt 0.4841 0.5392
vt 0.7417 0.5707
vt 0.8698 0.6591
vt 0.7992 0.6327
vt 0.2565 0.5774
vt 0.3443 0.4884
vt 0.1868 0.3969
vt 0.3855 0.3679
vt 0.3776 0.2395
vt 0.1872 0.2886
vt 0.2261 0.0493
vt 0.3173 0.1254
vt 0.1055 0.6946
vt 0.1802 0.6534
vt 0.2301 0.5892
vt 0.3982 0.5262
vt 0.5690 0.4669
vt 0.5233 0.4629
vt 0.5544 0.4102
vt 0.4766 0.4681
vt 0.4977 0.4119
vt 0.4310 0.4815
vt 0.4421 0.4200
vt 0.3970 0.5156
vt 0.3644 0.4442
vt 0.6291 0.4244
vt 0.5844 0.3399
vt 0.6537 0.3312
vt 0.5782 0.0591
vt 0.4028 0.3508
vt 0.5139 0.3403
vt 0.4593 0.3440
vt 0.3921 0.0768
vt 0.9570 0.2635
vt 0.9593 0.3536
vt 0.6645 0.2772
vt 0.9550 0.0882
vt 0.9602 0.1614
vt 0.6664 0.1140
vt 0.5059 0.0609
vt 0.4374 0.0667
vt 0.6422 0.0627
vt 0.9521 0.4549
vt 0.6706 0.4443
vt 0.6658 0.0156
vt 0.6691 0.5455
vt 0.9471 0.5868
vt 0.9534 0.0123
vn -0.1579 0.0163 -0.9873
vn 0.2039 -0.1644 -0.9651
vn -0.2707 -0.8109 -0.5189
vn 0.7130 0.0845 -0.6961
vn 0.9497 -0.1264 -0.2866
vn 0.2809 -0.8664 -0.4128
vn -0.9961 -0.0533 -0.0702
vn -0.4198 0.8428 -0.3369
vn -0.7720 0.0299 -0.6349
vn -0.5752 0.0886 -0.8132
vn 0.0218 0.8493 -0.5274
vn -0.5108 0.8422 0.1725
vn 0.4951 0.8505 -0.1776
vn 0.0092 0.9996 -0.0263
vn -0.9342 0.0347 0.3550
vn -0.5576 -0.7907 -0.2528
vn -0.4436 -0.8751 0.1936
vn 0.3269 -0.9419 -0.0769
vn -0.0123 -0.9993 0.0350
vn 0.5201 0.0072 0.8541
vn 0.1602 -0.8547 0.4938
vn 0.7644 -0.1715 0.6215
vn 0.9786 0.1684 0.1181
vn 0.5757 -0.7913 0.2062
vn -0.7179 -0.0655 0.6931
vn -0.2970 -0.1154 0.9479
vn -0.1404 0.8524 0.5037
vn 0.0717 -0.1135 0.9909
vn 0.3423 0.8638 0.3696
vn -0.2379 -0.8853 0.3996
vn -0.7716 0.5479 -0.3230
vn 0.3549 0.5665 -0.7437
vn -0.3826 0.0623 -0.9218
vn 0.7320 0.5874 0.3452
vn 0.9185 0.0498 -0.3922
vn -0.3914 0.5527 0.7358
vn 0.3541 0.0986 0.9300
vn -0.9157 0.0958 0.3903
vn -0.9190 -0.1716 -0.3550
vn -0.3109 -0.3084 0.8990
vn -0.9881 0.1423 0.0588
vn 0.5614 -0.2154 -0.7990
vn 0.8191 -0.3635 0.4438
vn -0.1403 -0.2609 0.9551
vn 0.1647 0.5509 -0.8182
vn -0.6130 0.4838 -0.6247
vn 0.2422 0.4234 -0.8730
vn 0.8108 -0.1412 0.5680
vn 0.9125 0.2548 -0.3200
vn 0.9354 -0.1130 0.3349
vn -0.9725 0.0821 0.2179
vn -0.1433 -0.2616 0.9545
s 1
f 1/1/1 2/2/2 3/3/3
f 4/4/4 5/5/5 6/6/6
f 7/7/7 8/8/8 9/9/9
f 10/10/10 11/11/11 1/12/1
f 8/8/8 7/7/7 12/13/12
f 8/8/8 11/11/11 10/10/10
f 4/14/4 13/15/13 5/16/5
f 11/11/11 4/14/4 2/17/2
f 8/8/8 12/13/12 14/18/14
f 14/18/14 13/15/13 11/11/11
f 12/13/12 7/7/7 15/19/15
f 8/8/8 10/10/10 9/9/9
f 11/11/11 2/17/2 1/12/1
f 11/11/11 8/8/8 14/18/14
f 7/20/7 9/21/9 16/22/16
f 9/21/9 10/23/10 16/22/16
f 2/2/2 4/4/4 6/6/6
f 10/23/10 1/1/1 3/3/3
f 15/24/15 7/20/7 17/25/17
f 6/6/6 18/26/18 19/27/19
f 16/22/16 3/3/3 19/27/19
f 17/25/17 16/22/16 19/27/19
f 3/3/3 6/6/6 19/27/19
f 2/2/2 6/6/6 3/3/3
f 5/5/5 18/26/18 6/6/6
f 10/23/10 3/3/3 16/22/16
f 7/20/7 16/22/16 17/25/17
f 20/28/20 21/29/21 22/30/22
f 23/31/23 24/32/24 5/5/5
f 25/33/25 26/34/26 27/35/27
f 28/36/28 20/37/20 29/38/29
f 12/13/12 25/33/25 27/35/27
f 27/35/27 28/36/28 29/38/29
f 23/39/23 5/16/5 13/15/13
f 29/38/29 22/40/22 23/39/23
f 27/35/27 14/18/14 12/13/12
f 23/39/23 13/15/13 29/38/29
f 12/13/12 15/19/15 25/33/25
f 27/35/27 26/34/26 28/36/28
f 29/38/29 20/37/20 22/40/22
f 13/15/13 4/14/4 11/11/11
f 29/38/29 14/18/14 27/35/27
f 25/41/25 30/42/30 26/43/26
f 26/43/26 30/42/30 28/44/28
f 22/30/22 24/32/24 23/31/23
f 28/44/28 21/29/21 20/28/20
f 15/24/15 17/25/17 25/41/25
f 24/32/24 19/27/19 18/26/18
f 30/42/30 19/27/19 21/29/21
f 17/25/17 19/27/19 30/42/30
f 21/29/21 19/27/19 24/32/24
f 22/30/22 21/29/21 24/32/24
f 5/5/5 24/32/24 18/26/18
f 28/44/28 30/42/30 21/29/21
f 25/41/25 17/25/17 30/42/30
f 31/45/31 32/46/32 33/47/33
f 32/46/32 34/48/34 35/49/35
f 34/48/34 36/50/36 37/51/37
f 36/50/36 31/52/31 38/53/38
f 38/54/38 33/47/33 39/55/39
f 40/56/40 39/55/39 41/57/41
f 37/51/37 38/53/38 40/58/40
f 33/47/33 35/49/35 42/59/42
f 35/49/35 37/51/37 43/60/43
f 32/46/32 35/49/35 33/47/33
f 34/48/34 37/51/37 35/49/35
f 36/50/36 38/53/38 37/51/37
f 31/45/31 33/47/33 38/54/38
f 40/56/40 38/54/38 39/55/39
f 43/60/43 40/58/40 44/61/44
f 43/60/43 37/51/37 40/58/40
f 39/55/39 33/47/33 42/59/42
f 42/59/42 35/49/35 43/60/43
f 45/62/45 46/63/46 47/64/47
f 48/65/48 49/66/49 50/67/50
f 39/55/39 42/59/42 47/68/47
f 42/59/42 43/60/43 50/69/50
f 44/70/44 40/56/40 41/57/41
f 50/69/50 43/60/43 44/61/44
f 41/57/41 39/55/39 47/68/47
f 47/68/47 42/59/42 50/69/50
f 45/62/45 47/64/47 49/66/49
f 51/71/51 41/72/41 46/63/46
f 50/67/50 44/73/44 48/65/48
f 44/74/44 41/72/41 52/75/52
f 46/63/46 41/72/41 47/64/47
f 44/73/44 52/76/52 48/65/48
f 41/72/41 51/71/51 52/75/52
f 47/64/47 50/67/50 49/66/49
f 13/15/13 14/18/14 29/38/29
