# Blender v2.77 (sub 0) OBJ File: ''
# www.blender.org
o Sphere
v -0.500000 0.147256 0.000000
v -0.866025 0.513282 0.000000
v -0.663414 0.513282 -0.493479
v -0.766044 1.013282 -0.569820
v -0.173648 1.013282 -0.873015
v -0.383022 1.879307 -0.284910
v -0.086824 1.879307 -0.436507
v -0.150384 1.513282 -0.756053
v -0.383022 0.147256 -0.284910
v -0.150384 0.513282 -0.756053
v -0.663414 1.513282 -0.493479
v 0.500000 1.013282 -0.767716
v 0.433012 0.513282 -0.664862
v 0.250000 1.879307 -0.383858
v 0.250000 0.147256 -0.383858
v 0.433012 1.513282 -0.664862
v 0.939692 1.013282 -0.303195
v 0.813797 0.513282 -0.262575
v 0.469846 1.879307 -0.151597
v 0.469846 0.147256 -0.151597
v 0.813797 1.513282 -0.262575
v 0.469846 1.879307 0.151597
v 0.813797 1.513282 0.262574
v 0.813797 0.513282 0.262574
v 0.469846 0.147256 0.151597
v 0.939692 1.013282 0.303195
v 0.433013 0.513282 0.664862
v 0.433013 1.513282 0.664862
v 0.500000 1.013282 0.767716
v 0.250000 1.879307 0.383858
v 0.250000 0.147256 0.383858
v -0.150384 0.513282 0.756053
v -0.150384 1.513282 0.756053
v -0.173648 1.013282 0.873015
v -0.086824 1.879307 0.436507
v -0.663414 0.513282 0.493479
v -0.383022 0.147256 0.284910
v -0.663414 1.513282 0.493479
v -0.766044 1.013282 0.569820
v -0.383022 1.879307 0.284910
v -0.866025 1.513282 0.000000
v -0.500000 1.879307 0.000000
v 0.000000 2.013282 0.000000
v 0.000000 0.013282 0.000000
v -1.000000 1.013282 0.000000
v -0.086824 0.147256 -0.436508
v -0.086824 0.147256 0.436508
vt 0.0000 0.0000
vt 1.0000 0.0000
vt 1.0000 1.0000
vt 0.0000 0.0000
vt 1.0000 0.0000
vt 1.0000 1.0000
vt 0.0000 0.0000
vt 1.0000 0.0000
vt 1.0000 1.0000
vt 0.0000 0.0000
vt 1.0000 0.0000
vt 1.0000 1.0000
vt 0.0000 0.0000
vt 1.0000 0.0000
vt 0.0000 0.0000
vt 1.0000 0.0000
vt 1.0000 1.0000
vt 0.0000 0.0000
vt 1.0000 1.0000
vt 0.0000 0.0000
vt 1.0000 0.0000
vt 1.0000 1.0000
vt 1.0000 1.0000
vt 0.0000 0.0000
vt 1.0000 0.0000
vt 1.0000 1.0000
vt 0.0000 0.0000
vt 1.0000 0.0000
vt 1.0000 1.0000
vt 0.0000 0.0000
vt 1.0000 0.0000
vt 1.0000 1.0000
vt 1.0000 0.0000
vt 1.0000 1.0000
vt 0.0000 0.0000
vt 1.0000 0.0000
vt 1.0000 1.0000
vt 0.0000 0.0000
vt 1.0000 0.0000
vt 1.0000 1.0000
vt 0.0000 0.0000
vt 1.0000 0.0000
vt 1.0000 1.0000
vt 0.0000 0.0000
vt 1.0000 0.0000
vt 1.0000 1.0000
vt 0.0000 0.0000
vt 1.0000 1.0000
vt 0.0000 0.0000
vt 1.0000 0.0000
vt 1.0000 1.0000
vt 0.0000 0.0000
vt 0.0000 0.0000
vt 1.0000 0.0000
vt 1.0000 1.0000
vt 0.0000 0.0000
vt 1.0000 0.0000
vt 1.0000 1.0000
vt 0.0000 0.0000
vt 1.0000 0.0000
vt 1.0000 1.0000
vt 0.0000 0.0000
vt 1.0000 0.0000
vt 0.0000 0.0000
vt 1.0000 0.0000
vt 1.0000 1.0000
vt 0.0000 0.0000
vt 1.0000 0.0000
vt 1.0000 1.0000
vt 0.0000 0.0000
vt 1.0000 1.0000
vt 1.0000 0.0000
vt 1.0000 1.0000
vt 0.0000 0.0000
vt 1.0000 1.0000
vt 0.0000 0.0000
vt 1.0000 0.0000
vt 1.0000 1.0000
vt 0.0000 0.0000
vt 1.0000 0.0000
vt 1.0000 1.0000
vt 0.0000 0.0000
vt 1.0000 0.0000
vt 1.0000 1.0000
vt 0.0000 0.0000
vt 1.0000 0.0000
vt 1.0000 1.0000
vt 0.0000 0.0000
vt 1.0000 0.0000
vt 1.0000 0.0000
vt 1.0000 1.0000
vt 1.0000 0.0000
vt 1.0000 1.0000
vt 1.0000 1.0000
vt 1.0000 0.0000
vt 0.0000 0.0000
vt 0.0000 0.0000
vt 1.0000 0.0000
vt 1.0000 1.0000
vt 1.0000 0.0000
vt 1.0000 1.0000
vt 1.0000 0.0000
vt 1.0000 1.0000
vt 1.0000 1.0000
vt 1.0000 0.0000
vt 1.0000 1.0000
vt 0.0000 0.0000
vt 1.0000 0.0000
vt 0.0000 0.0000
vt 1.0000 1.0000
vt 0.0000 0.0000
vt 1.0000 1.0000
vt 1.0000 0.0000
vt 1.0000 1.0000
vt 0.0000 0.0000
vt 1.0000 0.0000
vt 0.0000 0.0000
vt 0.0000 0.0000
vt 1.0000 0.0000
vt 1.0000 0.0000
vt 0.0000 0.0000
vt 1.0000 0.0000
vt 0.0000 0.0000
vt 1.0000 0.0000
vt 0.0000 0.0000
vt 0.0000 0.0000
vt 0.0000 0.0000
vt 1.0000 0.0000
vt 1.0000 0.0000
vt 0.0000 0.0000
vt 1.0000 0.0000
vt 1.0000 0.0000
vt 0.0000 0.0000
vn -0.5448 -0.8385 -0.0000
vn -0.8802 -0.4746 -0.0000
vn -0.6537 -0.4612 -0.6000
vn -0.7395 0.0000 -0.6731
vn -0.1599 0.0000 -0.9871
vn -0.4059 0.8298 -0.3830
vn -0.0890 0.8185 -0.5675
vn -0.1424 0.4436 -0.8849
vn -0.4059 -0.8298 -0.3830
vn -0.1424 -0.4436 -0.8849
vn -0.6537 0.4612 -0.6000
vn 0.4691 0.0000 -0.8832
vn 0.4163 -0.4505 -0.7898
vn 0.2595 0.8229 -0.5055
vn 0.2595 -0.8229 -0.5055
vn 0.4163 0.4505 -0.7898
vn 0.9304 0.0000 -0.3665
vn 0.8198 -0.4708 -0.3259
vn 0.5078 0.8360 -0.2078
vn 0.5078 -0.8360 -0.2078
vn 0.8198 0.4708 -0.3259
vn 0.5078 0.8360 0.2078
vn 0.8198 0.4708 0.3259
vn 0.8198 -0.4708 0.3259
vn 0.5078 -0.8360 0.2078
vn 0.9304 -0.0000 0.3665
vn 0.4163 -0.4505 0.7898
vn 0.4163 0.4505 0.7898
vn 0.4691 -0.0000 0.8832
vn 0.2595 0.8229 0.5055
vn 0.2595 -0.8229 0.5055
vn -0.1424 -0.4436 0.8849
vn -0.1424 0.4436 0.8849
vn -0.1599 -0.0000 0.9871
vn -0.0890 0.8185 0.5675
vn -0.6537 -0.4612 0.6000
vn -0.4059 -0.8298 0.3830
vn -0.6537 0.4612 0.6000
vn -0.7395 -0.0000 0.6731
vn -0.4059 0.8298 0.3830
vn -0.8802 0.4746 0.0000
vn -0.5448 0.8385 -0.0000
vn 0.0000 1.0000 0.0000
vn 0.0000 -1.0000 -0.0000
vn -1.0000 -0.0000 -0.0000
vn -0.0890 -0.8185 -0.5675
vn -0.0890 -0.8185 0.5675
s 1
f 1/1/1 2/2/2 3/3/3
f 3/4/3 4/5/4 5/6/5
f 6/7/6 7/8/7 8/9/8
f 9/10/9 3/11/3 10/12/10
f 11/13/11 8/14/8 5/6/5
f 5/15/5 12/16/12 13/17/13
f 8/18/8 7/8/7 14/19/14
f 10/20/10 13/21/13 15/22/15
f 5/15/5 8/14/8 16/23/16
f 12/24/12 17/25/17 18/26/18
f 16/27/16 14/28/14 19/29/19
f 13/30/13 18/31/18 20/32/20
f 12/24/12 16/33/16 21/34/21
f 19/35/19 22/36/22 23/37/23
f 18/38/18 24/39/24 25/40/25
f 21/41/21 23/42/23 26/43/26
f 17/44/17 26/45/26 24/46/24
f 25/47/25 24/39/24 27/48/27
f 23/49/23 28/50/28 29/51/29
f 24/52/24 26/45/26 29/51/29
f 22/53/22 30/54/30 28/55/28
f 31/56/31 27/57/27 32/58/32
f 28/59/28 33/60/33 34/61/34
f 27/62/27 29/63/29 34/61/34
f 30/64/30 35/65/35 33/66/33
f 32/67/32 36/68/36 37/69/37
f 34/70/34 33/60/33 38/71/38
f 34/70/34 39/72/39 36/73/36
f 33/74/33 35/65/35 40/75/40
f 39/76/39 38/77/38 41/78/41
f 41/79/41 11/80/11 4/81/4
f 42/82/42 43/83/43 6/84/6
f 44/85/44 1/86/1 9/87/9
f 2/88/2 45/89/45 4/81/4
f 42/82/42 6/90/6 11/91/11
f 44/85/44 9/92/9 46/93/46
f 6/7/6 43/83/43 7/94/7
f 44/85/44 46/95/46 15/22/15
f 7/96/7 43/83/43 14/19/14
f 14/97/14 43/83/43 19/29/19
f 44/85/44 15/98/15 20/32/20
f 19/35/19 43/83/43 22/99/22
f 44/85/44 20/100/20 25/40/25
f 22/53/22 43/83/43 30/101/30
f 44/85/44 25/102/25 31/103/31
f 30/64/30 43/83/43 35/104/35
f 44/85/44 31/105/31 47/106/47
f 35/107/35 43/83/43 40/75/40
f 44/85/44 47/108/47 37/69/37
f 36/109/36 2/2/2 1/110/1
f 40/111/40 43/83/43 42/112/42
f 44/85/44 37/113/37 1/110/1
f 39/76/39 45/89/45 2/114/2
f 38/115/38 40/116/40 42/112/42
f 9/10/9 1/86/1 3/3/3
f 10/20/10 3/11/3 5/6/5
f 11/13/11 6/90/6 8/9/8
f 46/117/46 9/92/9 10/12/10
f 4/118/4 11/80/11 5/6/5
f 10/20/10 5/119/5 13/17/13
f 16/27/16 8/14/8 14/19/14
f 46/117/46 10/120/10 15/22/15
f 12/24/12 5/119/5 16/23/16
f 13/30/13 12/16/12 18/26/18
f 21/41/21 16/33/16 19/29/19
f 15/121/15 13/21/13 20/32/20
f 17/44/17 12/16/12 21/34/21
f 21/41/21 19/122/19 23/37/23
f 20/123/20 18/31/18 25/40/25
f 17/44/17 21/124/21 26/43/26
f 18/38/18 17/25/17 24/46/24
f 31/56/31 25/102/25 27/48/27
f 26/125/26 23/42/23 29/51/29
f 27/62/27 24/39/24 29/51/29
f 23/49/23 22/36/22 28/55/28
f 47/126/47 31/105/31 32/58/32
f 29/127/29 28/50/28 34/61/34
f 32/67/32 27/57/27 34/61/34
f 28/59/28 30/54/30 33/66/33
f 47/126/47 32/128/32 37/69/37
f 39/76/39 34/129/34 38/71/38
f 32/67/32 34/129/34 36/73/36
f 38/115/38 33/60/33 40/75/40
f 45/130/45 39/72/39 41/78/41
f 45/130/45 41/131/41 4/81/4
f 3/4/3 2/2/2 4/81/4
f 41/79/41 42/132/42 11/91/11
f 37/133/37 36/68/36 1/110/1
f 36/109/36 39/72/39 2/114/2
f 41/79/41 38/77/38 42/112/42
