# Blender v2.77 (sub 0) OBJ File: ''
# www.blender.org
o Cube.001_Cube.000
v -0.365522 -0.440068 -0.228882
v -0.291831 -0.836881 -0.015406
v -0.392204 -0.884731 -0.190317
v -0.379219 -0.447370 0.204253
v -0.579052 -0.857456 0.255007
v -0.402575 -0.890357 0.151424
v -0.806417 -0.473409 0.186164
v -0.849293 -0.868745 -0.032890
v -0.743999 -0.909529 0.140876
v -0.794039 -0.466196 -0.237657
v -0.562073 -0.848170 -0.303303
v -0.733569 -0.903895 -0.201173
v -0.562597 -0.997164 -0.026364
v -0.619586 -0.022874 0.266433
v -0.422298 -0.001323 0.189098
v -0.803185 -0.022997 -0.217112
v -0.602607 -0.013589 -0.291877
v -0.889827 -0.034163 -0.021464
v -0.410734 0.005796 -0.201739
v -0.332366 -0.002300 -0.003980
v -0.815658 -0.030468 0.179775
v -0.879802 -0.453378 -0.027596
v -0.580857 -0.432453 -0.315477
v -0.598928 -0.442133 0.277174
v -0.289169 -0.420705 -0.009128
v -0.612032 0.005497 -0.012608
vt 0.0000 0.0000
vt 1.0000 1.0000
vt 0.0000 1.0000
vt 0.0000 0.0000
vt 1.0000 1.0000
vt 0.0000 1.0000
vt 0.0000 0.0000
vt 1.0000 1.0000
vt 0.0000 1.0000
vt 0.0000 0.0000
vt 1.0000 1.0000
vt 0.0000 1.0000
vt 0.0000 0.0000
vt 1.0000 0.0000
vt 0.0000 1.0000
vt 0.0000 0.0000
vt 0.0000 0.0000
vt 1.0000 1.0000
vt 1.0000 0.0000
vt 0.0000 1.0000
vt 0.0000 0.0000
vt 1.0000 0.0000
vt 0.0000 0.0000
vt 1.0000 0.0000
vt 0.0000 1.0000
vt 0.0000 0.0000
vt 0.0000 0.0000
vt 1.0000 1.0000
vt 0.0000 1.0000
vt 1.0000 0.0000
vt 0.0000 1.0000
vt 0.0000 0.0000
vt 1.0000 0.0000
vt 0.0000 1.0000
vt 0.0000 0.0000
vt 0.0000 0.0000
vt 1.0000 1.0000
vt 0.0000 1.0000
vt 1.0000 0.0000
vt 0.0000 1.0000
vt 0.0000 0.0000
vt 1.0000 0.0000
vt 0.0000 1.0000
vt 0.0000 0.0000
vt 0.0000 0.0000
vt 1.0000 1.0000
vt 0.0000 1.0000
vt 1.0000 0.0000
vt 0.0000 1.0000
vt 0.0000 0.0000
vt 1.0000 0.0000
vt 0.0000 1.0000
vt 0.0000 0.0000
vt 0.0000 0.0000
vt 1.0000 1.0000
vt 0.0000 1.0000
vt 1.0000 0.0000
vt 1.0000 0.0000
vt 1.0000 0.0000
vt 1.0000 0.0000
vt 1.0000 0.0000
vt 1.0000 1.0000
vt 1.0000 0.0000
vt 1.0000 1.0000
vt 1.0000 1.0000
vt 1.0000 1.0000
vt 1.0000 0.0000
vt 1.0000 1.0000
vt 1.0000 0.0000
vt 1.0000 1.0000
vt 1.0000 0.0000
vt 1.0000 1.0000
vt 1.0000 1.0000
vt 1.0000 0.0000
vt 1.0000 0.0000
vn 0.7236 0.0360 -0.6892
vn 0.9082 -0.4179 0.0215
vn 0.6025 -0.5848 -0.5431
vn 0.6790 0.0139 0.7340
vn -0.0070 -0.4725 0.8813
vn 0.5696 -0.6016 0.5600
vn -0.7325 -0.0589 0.6782
vn -0.8655 -0.4997 -0.0338
vn -0.5391 -0.6536 0.5312
vn -0.6911 -0.0370 -0.7218
vn 0.0471 -0.4455 -0.8940
vn -0.5044 -0.6365 -0.5834
vn 0.0566 -0.9983 -0.0149
vn -0.9987 -0.0413 -0.0300
vn -0.5708 0.6029 -0.5574
vn -0.8225 0.5685 -0.0159
vn 0.0205 0.0216 -0.9996
vn -0.0404 -0.0089 0.9991
vn -0.6053 0.5823 0.5428
vn -0.0576 0.5987 0.7989
vn 0.9979 0.0559 0.0324
vn 0.4854 0.6644 0.5683
vn 0.7565 0.6531 0.0336
vn 0.5174 0.6840 -0.5142
vn -0.0097 0.6240 -0.7814
vn -0.0653 0.9977 0.0154
s 1
f 1/1/1 2/2/2 3/3/3
f 4/4/4 5/5/5 6/6/6
f 7/7/7 8/8/8 9/9/9
f 10/10/10 11/11/11 12/12/12
f 13/13/13 5/5/5 9/9/9
f 13/14/13 8/15/8 12/16/12
f 11/17/11 13/18/13 12/12/12
f 2/19/2 13/20/13 3/21/3
f 10/22/10 8/15/8 22/23/14
f 16/24/15 22/25/14 18/26/16
f 16/27/15 23/28/17 10/29/10
f 7/30/7 5/31/5 24/32/18
f 21/33/19 24/34/18 14/35/20
f 21/36/19 22/37/14 7/38/7
f 4/39/4 2/40/2 25/41/21
f 15/42/22 25/43/21 20/44/23
f 15/45/22 24/46/18 4/47/4
f 1/48/1 11/49/11 23/50/17
f 19/51/24 23/52/17 17/53/25
f 19/54/24 25/55/21 1/56/1
f 1/1/1 25/57/21 2/2/2
f 4/4/4 24/58/18 5/5/5
f 7/7/7 22/59/14 8/8/8
f 10/10/10 23/60/17 11/11/11
f 13/13/13 6/61/6 5/5/5
f 13/14/13 9/62/9 8/15/8
f 11/17/11 3/63/3 13/18/13
f 2/19/2 6/64/6 13/20/13
f 10/22/10 12/65/12 8/15/8
f 16/24/15 10/66/10 22/25/14
f 16/27/15 17/67/25 23/28/17
f 7/30/7 9/62/9 5/31/5
f 21/33/19 7/68/7 24/34/18
f 21/36/19 18/69/16 22/37/14
f 4/39/4 6/64/6 2/40/2
f 15/42/22 4/70/4 25/43/21
f 15/45/22 14/71/20 24/46/18
f 1/48/1 3/72/3 11/49/11
f 19/51/24 1/73/1 23/52/17
f 19/54/24 20/74/23 25/55/21
f 16/24/15 18/26/16 26/75/26
f 18/69/16 21/36/19 26/75/26
f 20/74/23 19/54/24 26/75/26
f 15/42/22 20/44/23 26/75/26
f 19/51/24 17/53/25 26/75/26
f 14/71/20 15/45/22 26/75/26
f 21/33/19 14/35/20 26/75/26
f 17/67/25 16/27/15 26/75/26
