# Blender v2.77 (sub 0) OBJ File: ''
# www.blender.org
o Cube.001_Cube.002
v 0.232883 -0.518797 0.136691
v 0.357668 -0.280008 0.205106
v 0.203288 -0.289603 0.128185
v 0.311415 -0.045547 0.153678
v 0.086454 0.104055 -0.018351
v 0.069762 0.066759 0.069958
v 0.604191 -0.467648 -0.213574
v 0.371590 -0.272394 -0.252680
v 0.516754 -0.237472 -0.168101
v 0.178781 -0.518752 -0.037197
v 0.215329 -0.284156 -0.182972
v 0.244133 -0.512705 -0.206972
v 0.592629 -0.475279 0.164732
v 0.593175 -0.263138 -0.016619
v 0.507405 -0.243191 0.130375
v 0.000327 0.002924 0.008478
v 0.048522 0.049941 -0.090698
v 0.106189 -0.190627 0.115089
v 0.070289 -0.008730 0.131352
v 0.021552 -0.083092 0.089222
v 0.304969 -0.041696 -0.187656
v 0.038784 -0.038789 -0.131115
v 0.077691 -0.222089 -0.005345
v 0.001446 -0.098952 -0.062263
v 0.096602 -0.198422 -0.132963
v 0.197523 -0.149678 -0.224246
v 0.136084 -0.289264 -0.030955
v 0.395535 -0.002636 -0.014923
v 0.022619 -0.151574 0.018588
v 0.210408 -0.141065 0.194295
v 0.403413 -0.509387 0.235204
v 0.447941 -0.740840 0.242958
v 0.645229 -0.719289 0.165623
v 0.687047 -0.484604 -0.021672
v 0.419130 -0.500050 -0.296814
v 0.264342 -0.740963 -0.240587
v 0.464920 -0.731555 -0.315352
v 0.177700 -0.752129 -0.044939
v 0.656793 -0.712170 -0.225214
v 0.735161 -0.720266 -0.027455
v 0.251869 -0.748434 0.156300
v 0.455494 -0.755948 -0.036083
vt 0.0000 0.0000
vt 1.0000 1.0000
vt 0.0000 1.0000
vt 0.0000 0.0000
vt 1.0000 1.0000
vt 0.0000 1.0000
vt 0.0000 0.0000
vt 1.0000 1.0000
vt 0.0000 1.0000
vt 1.0000 0.0000
vt 0.0000 1.0000
vt 0.0000 0.0000
vt 0.0000 0.0000
vt 1.0000 1.0000
vt 0.0000 1.0000
vt 0.0000 0.0000
vt 0.0000 1.0000
vt 0.0000 0.0000
vt 1.0000 1.0000
vt 0.0000 1.0000
vt 0.0000 0.0000
vt 1.0000 1.0000
vt 1.0000 0.0000
vt 0.0000 1.0000
vt 0.0000 0.0000
vt 1.0000 0.0000
vt 0.0000 1.0000
vt 0.0000 0.0000
vt 1.0000 0.0000
vt 0.0000 1.0000
vt 0.0000 0.0000
vt 1.0000 0.0000
vt 0.0000 1.0000
vt 0.0000 0.0000
vt 1.0000 0.0000
vt 0.0000 1.0000
vt 0.0000 0.0000
vt 1.0000 0.0000
vt 0.0000 1.0000
vt 0.0000 0.0000
vt 1.0000 0.0000
vt 0.0000 1.0000
vt 0.0000 0.0000
vt 1.0000 0.0000
vt 0.0000 1.0000
vt 0.0000 0.0000
vt 0.0000 0.0000
vt 1.0000 1.0000
vt 0.0000 1.0000
vt 0.0000 0.0000
vt 1.0000 1.0000
vt 0.0000 1.0000
vt 1.0000 0.0000
vt 0.0000 0.0000
vt 0.0000 0.0000
vt 1.0000 1.0000
vt 1.0000 0.0000
vt 0.0000 1.0000
vt 0.0000 0.0000
vt 0.0000 0.0000
vt 1.0000 1.0000
vt 0.0000 1.0000
vt 0.0000 0.0000
vt 1.0000 1.0000
vt 0.0000 1.0000
vt 0.0000 0.0000
vt 1.0000 1.0000
vt 0.0000 1.0000
vt 1.0000 0.0000
vt 0.0000 1.0000
vt 0.0000 0.0000
vt 1.0000 0.0000
vt 0.0000 1.0000
vt 0.0000 0.0000
vt 1.0000 0.0000
vt 0.0000 1.0000
vt 0.0000 0.0000
vt 1.0000 0.0000
vt 0.0000 1.0000
vt 0.0000 0.0000
vt 1.0000 0.0000
vt 0.0000 1.0000
vt 0.0000 0.0000
vt 1.0000 0.0000
vt 0.0000 1.0000
vt 0.0000 0.0000
vt 1.0000 0.0000
vt 0.0000 1.0000
vt 0.0000 0.0000
vt 0.0000 0.0000
vt 1.0000 1.0000
vt 0.0000 1.0000
vt 0.0000 0.0000
vt 1.0000 1.0000
vt 0.0000 1.0000
vt 0.0000 0.0000
vt 1.0000 1.0000
vt 0.0000 1.0000
vt 0.0000 0.0000
vt 1.0000 1.0000
vt 0.0000 1.0000
vt 0.0000 0.0000
vt 1.0000 1.0000
vt 0.0000 1.0000
vt 1.0000 0.0000
vt 1.0000 0.0000
vt 1.0000 0.0000
vt 1.0000 1.0000
vt 1.0000 0.0000
vt 1.0000 0.0000
vt 1.0000 0.0000
vt 1.0000 0.0000
vt 1.0000 1.0000
vt 1.0000 1.0000
vt 1.0000 1.0000
vt 1.0000 1.0000
vt 1.0000 1.0000
vt 1.0000 1.0000
vt 1.0000 1.0000
vt 1.0000 1.0000
vt 1.0000 0.0000
vt 1.0000 0.0000
vt 1.0000 0.0000
vt 1.0000 1.0000
vt 1.0000 0.0000
vt 1.0000 0.0000
vt 1.0000 0.0000
vt 1.0000 1.0000
vt 1.0000 1.0000
vt 1.0000 1.0000
vt 1.0000 1.0000
vt 1.0000 1.0000
vt 1.0000 1.0000
vt 1.0000 0.0000
vt 1.0000 0.0000
vt 1.0000 0.0000
vt 1.0000 0.0000
vt 1.0000 0.0000
vt 1.0000 0.0000
vn -0.7732 -0.0278 0.6336
vn 0.0231 0.0947 0.9952
vn -0.6609 -0.3069 0.6849
vn 0.3226 0.6014 0.7309
vn -0.1898 0.9801 -0.0583
vn -0.3484 0.7820 0.5168
vn 0.6844 0.2747 -0.6753
vn 0.0468 0.1905 -0.9806
vn 0.6549 0.4647 -0.5960
vn -0.9973 -0.0638 -0.0356
vn -0.6269 -0.2531 -0.7368
vn -0.7375 0.0203 -0.6751
vn 0.6380 0.2394 0.7318
vn 0.8740 0.4842 0.0394
vn 0.6281 0.4074 0.6630
vn -0.9454 0.3102 0.1000
vn -0.5318 0.6341 -0.5613
vn -0.6351 -0.4557 0.6237
vn -0.4533 0.3367 0.8253
vn -0.8276 -0.1311 0.5458
vn 0.2483 0.6289 -0.7367
vn -0.6549 0.1818 -0.7335
vn -0.7528 -0.6551 0.0642
vn -0.9441 -0.2069 -0.2568
vn -0.7035 -0.4607 -0.5411
vn -0.3179 0.0610 -0.9462
vn -0.8758 -0.4812 -0.0382
vn 0.5877 0.8089 0.0128
vn -0.8713 -0.4649 0.1570
vn -0.2188 0.0247 0.9754
vn -0.0756 0.0908 0.9930
vn 0.0443 -0.6084 0.7924
vn 0.6159 -0.5169 0.5945
vn 0.9561 0.2910 0.0355
vn -0.0309 0.1426 -0.9893
vn -0.5230 -0.6043 -0.6010
vn 0.0917 -0.5733 -0.8142
vn -0.7663 -0.6413 -0.0391
vn 0.6528 -0.4898 -0.5779
vn 0.8573 -0.5146 0.0137
vn -0.5533 -0.6332 0.5412
vn 0.0655 -0.9977 -0.0154
s 1
f 1/1/1 2/2/2 3/3/3
f 4/4/4 5/5/5 6/6/6
f 7/7/7 8/8/8 9/9/9
f 10/10/10 11/11/11 12/12/12
f 13/13/13 14/14/14 15/15/15
f 16/16/16 5/5/5 17/17/17
f 18/18/18 19/19/19 20/20/20
f 21/21/21 22/22/22 17/17/17
f 23/23/23 24/24/24 25/25/25
f 25/26/25 22/27/22 26/28/26
f 11/29/11 26/30/26 8/31/8
f 27/32/27 25/33/25 11/34/11
f 21/35/21 5/36/5 28/37/28
f 9/38/9 28/39/28 14/40/14
f 8/41/8 21/42/21 9/43/9
f 18/44/18 29/45/29 23/46/23
f 27/47/27 18/48/18 23/49/23
f 3/50/3 30/51/30 18/52/18
f 16/53/16 22/27/22 24/54/24
f 29/55/29 16/56/16 24/24/24
f 19/57/19 16/58/16 20/59/20
f 31/60/31 15/61/15 2/62/2
f 32/63/32 13/64/13 31/65/31
f 33/66/33 34/67/34 13/68/13
f 12/69/12 8/70/8 35/71/35
f 36/72/36 35/73/35 37/74/37
f 38/75/38 12/76/12 36/77/36
f 7/78/7 14/79/14 34/80/34
f 39/81/39 34/82/34 40/83/40
f 37/84/37 7/85/7 39/86/39
f 4/87/4 19/88/19 30/89/30
f 2/90/2 4/91/4 30/92/30
f 15/93/15 28/94/28 4/95/4
f 10/96/10 3/97/3 27/98/27
f 38/99/38 1/100/1 10/101/10
f 41/102/41 31/103/31 1/104/1
f 1/1/1 31/105/31 2/2/2
f 4/4/4 28/106/28 5/5/5
f 7/7/7 35/107/35 8/8/8
f 10/10/10 27/108/27 11/11/11
f 13/13/13 34/109/34 14/14/14
f 16/16/16 6/110/6 5/5/5
f 18/18/18 30/111/30 19/19/19
f 21/21/21 26/112/26 22/22/22
f 23/23/23 29/113/29 24/24/24
f 25/26/25 24/114/24 22/27/22
f 11/29/11 25/115/25 26/30/26
f 27/32/27 23/116/23 25/33/25
f 21/35/21 17/117/17 5/36/5
f 9/38/9 21/118/21 28/39/28
f 8/41/8 26/119/26 21/42/21
f 18/44/18 20/120/20 29/45/29
f 27/47/27 3/121/3 18/48/18
f 3/50/3 2/122/2 30/51/30
f 16/53/16 17/117/17 22/27/22
f 29/55/29 20/123/20 16/56/16
f 19/57/19 6/124/6 16/58/16
f 31/60/31 13/125/13 15/61/15
f 32/63/32 33/126/33 13/64/13
f 33/66/33 40/127/40 34/67/34
f 12/69/12 11/128/11 8/70/8
f 36/72/36 12/129/12 35/73/35
f 38/75/38 10/130/10 12/76/12
f 7/78/7 9/131/9 14/79/14
f 39/81/39 7/132/7 34/82/34
f 37/84/37 35/133/35 7/85/7
f 4/87/4 6/124/6 19/88/19
f 2/90/2 15/134/15 4/91/4
f 15/93/15 14/135/14 28/94/28
f 10/96/10 1/136/1 3/97/3
f 38/99/38 41/137/41 1/100/1
f 41/102/41 32/138/32 31/103/31
f 33/126/33 32/63/32 42/139/42
f 36/72/36 37/74/37 42/139/42
f 40/127/40 33/66/33 42/139/42
f 38/75/38 36/77/36 42/139/42
f 39/81/39 40/83/40 42/139/42
f 37/84/37 39/86/39 42/139/42
f 32/138/32 41/102/41 42/139/42
f 41/137/41 38/99/38 42/139/42
