# Blender v2.77 (sub 0) OBJ File: ''
# www.blender.org
o Cube_Cube.001
v -0.027300 -1.692923 0.276245
v -0.026603 -0.859914 0.268570
v -0.278456 -1.692923 -0.025089
v -0.270781 -0.859914 -0.024392
v 0.274034 -1.692923 0.025089
v 0.266359 -0.859914 0.024392
v 0.022878 -1.692923 -0.276245
v 0.022181 -0.859914 -0.268570
v -0.023351 -0.382400 0.232772
v -0.234983 -0.382400 -0.021141
v 0.018930 -0.382400 -0.232772
v 0.230561 -0.382400 0.021141
v -0.023352 -0.070537 0.232772
v -0.234983 -0.070537 -0.021141
v 0.018930 -0.070537 -0.232772
v 0.230561 -0.070537 0.021141
v -0.030004 -1.277015 0.306022
v -0.209187 -0.855281 0.172511
v -0.308233 -1.277015 -0.027793
v -0.187014 -1.736966 0.154029
v -0.174722 -0.855281 -0.206977
v 0.025582 -1.277015 -0.306022
v -0.156240 -1.736966 -0.184803
v 0.204766 -0.855281 -0.172511
v 0.303811 -1.277015 0.027793
v 0.182592 -1.736966 -0.154029
v 0.170300 -0.855281 0.206977
v 0.151819 -1.736966 0.184803
v -0.181623 -0.378707 0.149537
v -0.151748 -0.378707 -0.179413
v 0.177202 -0.378707 -0.149537
v 0.147326 -0.378707 0.179413
v -0.252682 -0.621172 -0.022748
v 0.020538 -0.621172 -0.250472
v 0.248261 -0.621172 0.022748
v -0.024959 -0.621172 0.250471
v -0.157700 -0.033393 0.129597
v -0.131808 -0.033393 -0.155489
v 0.153278 -0.033393 -0.129597
v 0.127386 -0.033393 0.155489
v 0.253756 -0.226468 0.023247
v -0.025458 -0.226468 0.255967
v -0.258178 -0.226468 -0.023247
v 0.021037 -0.226468 -0.255967
v -0.194889 -0.203088 0.160593
v 0.190467 -0.203088 -0.160593
v -0.162804 -0.203088 -0.192678
v -0.002211 0.050451 -0.000000
v 0.158632 -0.617015 0.192977
v -0.195188 -0.617015 0.160843
v 0.190767 -0.617015 -0.160843
v 0.158383 -0.203088 0.192678
v -0.163054 -0.617015 -0.192978
v -0.002211 -1.837245 -0.000000
v 0.199090 -1.298042 0.241518
v 0.239308 -1.298042 -0.201301
v -0.203511 -1.298042 -0.241518
v -0.243729 -1.298042 0.201301
vt 0.0000 0.0000
vt 1.0000 1.0000
vt 0.0000 1.0000
vt 0.0000 0.0000
vt 1.0000 1.0000
vt 0.0000 1.0000
vt 0.0000 0.0000
vt 1.0000 1.0000
vt 0.0000 1.0000
vt 0.0000 0.0000
vt 1.0000 1.0000
vt 0.0000 1.0000
vt 0.0000 0.0000
vt 0.0000 0.0000
vt 1.0000 1.0000
vt 0.0000 1.0000
vt 0.0000 0.0000
vt 1.0000 1.0000
vt 0.0000 1.0000
vt 0.0000 0.0000
vt 1.0000 1.0000
vt 0.0000 1.0000
vt 0.0000 0.0000
vt 1.0000 1.0000
vt 0.0000 1.0000
vt 0.0000 0.0000
vt 1.0000 1.0000
vt 0.0000 1.0000
vt 0.0000 0.0000
vt 1.0000 1.0000
vt 0.0000 1.0000
vt 0.0000 0.0000
vt 0.0000 1.0000
vt 0.0000 0.0000
vt 1.0000 1.0000
vt 0.0000 1.0000
vt 0.0000 0.0000
vt 1.0000 1.0000
vt 1.0000 0.0000
vt 0.0000 1.0000
vt 0.0000 0.0000
vt 1.0000 0.0000
vt 0.0000 1.0000
vt 0.0000 0.0000
vt 0.0000 0.0000
vt 1.0000 1.0000
vt 0.0000 1.0000
vt 1.0000 0.0000
vt 0.0000 1.0000
vt 0.0000 0.0000
vt 1.0000 0.0000
vt 0.0000 1.0000
vt 0.0000 0.0000
vt 0.0000 0.0000
vt 1.0000 1.0000
vt 0.0000 1.0000
vt 1.0000 0.0000
vt 0.0000 1.0000
vt 0.0000 0.0000
vt 1.0000 0.0000
vt 0.0000 1.0000
vt 0.0000 0.0000
vt 0.0000 0.0000
vt 1.0000 1.0000
vt 0.0000 1.0000
vt 1.0000 0.0000
vt 0.0000 1.0000
vt 0.0000 0.0000
vt 0.0000 0.0000
vt 1.0000 1.0000
vt 1.0000 0.0000
vt 0.0000 1.0000
vt 0.0000 0.0000
vt 1.0000 0.0000
vt 0.0000 1.0000
vt 0.0000 0.0000
vt 1.0000 0.0000
vt 0.0000 1.0000
vt 0.0000 0.0000
vt 0.0000 0.0000
vt 1.0000 1.0000
vt 0.0000 1.0000
vt 1.0000 0.0000
vt 0.0000 1.0000
vt 0.0000 0.0000
vt 1.0000 0.0000
vt 0.0000 1.0000
vt 0.0000 0.0000
vt 0.0000 0.0000
vt 1.0000 1.0000
vt 0.0000 1.0000
vt 1.0000 0.0000
vt 0.0000 1.0000
vt 0.0000 0.0000
vt 1.0000 0.0000
vt 0.0000 1.0000
vt 0.0000 0.0000
vt 0.0000 0.0000
vt 1.0000 1.0000
vt 0.0000 1.0000
vt 1.0000 0.0000
vt 0.0000 0.0000
vt 1.0000 0.0000
vt 0.0000 1.0000
vt 0.0000 0.0000
vt 0.0000 0.0000
vt 1.0000 1.0000
vt 0.0000 1.0000
vt 1.0000 0.0000
vt 0.0000 1.0000
vt 0.0000 0.0000
vt 1.0000 0.0000
vt 0.0000 1.0000
vt 0.0000 0.0000
vt 0.0000 0.0000
vt 1.0000 1.0000
vt 0.0000 1.0000
vt 1.0000 0.0000
vt 0.0000 1.0000
vt 0.0000 0.0000
vt 0.0000 0.0000
vt 1.0000 1.0000
vt 1.0000 0.0000
vt 0.0000 1.0000
vt 0.0000 0.0000
vt 1.0000 0.0000
vt 0.0000 0.0000
vt 0.0000 1.0000
vt 1.0000 1.0000
vt 0.0000 1.0000
vt 1.0000 0.0000
vt 0.0000 1.0000
vt 0.0000 0.0000
vt 0.0000 1.0000
vt 1.0000 1.0000
vt 0.0000 1.0000
vt 1.0000 0.0000
vt 0.0000 1.0000
vt 0.0000 0.0000
vt 0.0000 1.0000
vt 1.0000 1.0000
vt 0.0000 1.0000
vt 1.0000 0.0000
vt 0.0000 1.0000
vt 0.0000 0.0000
vt 0.0000 1.0000
vt 1.0000 1.0000
vt 0.0000 1.0000
vt 1.0000 0.0000
vt 1.0000 0.0000
vt 1.0000 0.0000
vt 1.0000 0.0000
vt 1.0000 0.0000
vt 1.0000 0.0000
vt 1.0000 0.0000
vt 1.0000 0.0000
vt 1.0000 0.0000
vt 1.0000 0.0000
vt 1.0000 0.0000
vt 1.0000 0.0000
vt 1.0000 0.0000
vt 1.0000 0.0000
vt 1.0000 1.0000
vt 1.0000 1.0000
vt 1.0000 0.0000
vt 1.0000 1.0000
vt 1.0000 1.0000
vt 1.0000 0.0000
vt 1.0000 1.0000
vt 1.0000 1.0000
vt 1.0000 0.0000
vt 1.0000 0.0000
vt 1.0000 1.0000
vt 1.0000 1.0000
vt 1.0000 0.0000
vt 1.0000 1.0000
vt 1.0000 1.0000
vt 1.0000 0.0000
vt 1.0000 1.0000
vt 1.0000 1.0000
vt 1.0000 0.0000
vt 1.0000 1.0000
vt 1.0000 1.0000
vt 1.0000 0.0000
vt 1.0000 1.0000
vt 1.0000 1.0000
vt 1.0000 0.0000
vt 1.0000 1.0000
vt 1.0000 0.0000
vt 1.0000 1.0000
vt 1.0000 1.0000
vt 1.0000 1.0000
vt 1.0000 1.0000
vt 1.0000 1.0000
vt 1.0000 1.0000
vt 1.0000 1.0000
vn -0.7682 -0.0060 0.6402
vn -0.8771 -0.4736 -0.0797
vn -0.5972 -0.6290 0.4977
vn -0.6402 -0.0060 -0.7682
vn 0.0797 -0.4736 -0.8771
vn -0.4977 -0.6290 -0.5972
vn 0.7682 -0.0060 -0.6402
vn 0.8771 -0.4736 0.0797
vn 0.5972 -0.6290 -0.4977
vn 0.6402 -0.0060 0.7682
vn -0.0797 -0.4736 0.8771
vn 0.4977 -0.6290 0.5972
vn 0.0000 -1.0000 0.0000
vn -0.6384 0.0752 -0.7660
vn -0.9952 -0.0366 -0.0904
vn -0.6400 -0.0248 -0.7679
vn 0.6387 0.0698 0.7663
vn 0.8589 0.5061 0.0780
vn 0.4761 0.6686 0.5712
vn 0.7660 0.0752 -0.6384
vn 0.0904 -0.0366 -0.9952
vn 0.7679 -0.0248 -0.6400
vn -0.7660 0.0752 0.6384
vn -0.0904 -0.0366 0.9952
vn -0.7679 -0.0248 0.6400
vn 0.6384 0.0752 0.7660
vn 0.9952 -0.0366 0.0904
vn 0.6400 -0.0248 0.7679
vn 0.0000 1.0000 0.0000
vn -0.8589 0.5061 -0.0780
vn -0.5712 0.6686 0.4761
vn -0.6387 0.0698 -0.7663
vn -0.4761 0.6686 -0.5712
vn 0.7663 0.0698 -0.6387
vn 0.0780 0.5061 -0.8589
vn 0.5712 0.6686 -0.4761
vn -0.7663 0.0698 0.6387
vn -0.0780 0.5061 0.8589
vn -0.9959 0.0009 -0.0904
vn -0.0904 0.0009 0.9959
vn 0.9959 0.0009 0.0904
vn 0.0904 0.0009 -0.9959
vn -0.0902 0.0752 0.9931
vn 0.6379 0.0848 0.7654
vn -0.0901 0.0831 0.9924
vn 0.9931 0.0752 0.0902
vn -0.9931 0.0752 -0.0902
vn -0.7654 0.0848 0.6379
vn -0.9924 0.0831 -0.0901
vn 0.7654 0.0848 -0.6379
vn 0.9924 0.0831 0.0901
vn 0.0902 0.0752 -0.9931
vn -0.6379 0.0848 -0.7654
vn 0.0901 0.0831 -0.9924
vn 0.9958 0.0169 0.0904
vn -0.0904 0.0169 0.9958
vn 0.0904 0.0169 -0.9958
vn -0.9958 0.0169 -0.0904
s 1
f 58/1/1 3/2/2 20/3/3
f 57/4/4 7/5/5 23/6/6
f 56/7/7 5/8/8 26/9/9
f 55/10/10 1/11/11 28/12/12
f 54/13/13 7/5/5 26/9/9
f 53/14/14 10/15/15 30/16/16
f 52/17/17 16/18/18 40/19/19
f 51/20/20 11/21/21 31/22/22
f 50/23/23 9/24/24 29/25/25
f 49/26/26 12/27/27 32/28/28
f 48/29/29 14/30/30 37/31/31
f 47/32/32 14/30/30 38/33/33
f 46/34/34 15/35/35 39/36/36
f 45/37/37 13/38/38 37/31/31
f 45/39/37 14/40/30 43/41/39
f 29/42/25 43/43/39 10/44/15
f 29/45/25 42/46/40 45/47/37
f 46/48/34 16/49/18 41/50/41
f 31/51/22 41/52/41 12/53/27
f 31/54/22 44/55/42 46/56/34
f 47/57/32 15/58/35 44/59/42
f 30/60/16 44/61/42 11/62/21
f 30/63/16 43/64/39 47/65/32
f 48/66/29 13/67/38 40/68/19
f 16/69/18 48/70/29 40/19/19
f 15/71/35 48/72/29 39/73/36
f 49/74/26 9/75/24 36/76/43
f 27/77/44 36/78/43 2/79/45
f 27/80/44 35/81/46 49/82/26
f 50/83/23 10/84/15 33/85/47
f 18/86/48 33/87/47 4/88/49
f 18/89/48 36/90/43 50/91/23
f 51/92/20 12/93/27 35/94/46
f 24/95/50 35/96/46 6/97/51
f 24/98/50 34/99/52 51/100/20
f 52/101/17 13/67/38 42/102/40
f 32/103/28 42/104/40 9/105/24
f 32/106/28 41/107/41 52/108/17
f 53/109/14 11/110/21 34/111/52
f 21/112/53 34/113/52 8/114/54
f 21/115/53 33/116/47 53/117/14
f 54/118/13 5/119/8 28/120/12
f 1/121/11 54/122/13 28/12/12
f 3/123/2 54/124/13 20/125/3
f 55/126/10 5/119/8 25/127/55
f 27/77/44 25/128/55 6/97/51
f 27/80/44 17/129/56 55/130/10
f 56/131/7 7/132/5 22/133/57
f 24/95/50 22/134/57 8/114/54
f 24/98/50 25/135/55 56/136/7
f 57/137/4 3/138/2 19/139/58
f 21/112/53 19/140/58 4/88/49
f 21/115/53 22/141/57 57/142/4
f 58/143/1 1/144/11 17/145/56
f 18/86/48 17/146/56 2/79/45
f 18/89/48 19/147/58 58/148/1
f 58/1/1 19/149/58 3/2/2
f 57/4/4 22/150/57 7/5/5
f 56/7/7 25/151/55 5/8/8
f 55/10/10 17/152/56 1/11/11
f 54/13/13 23/153/6 7/5/5
f 53/14/14 33/154/47 10/15/15
f 52/17/17 41/155/41 16/18/18
f 51/20/20 34/156/52 11/21/21
f 50/23/23 36/157/43 9/24/24
f 49/26/26 35/158/46 12/27/27
f 48/29/29 38/159/33 14/30/30
f 47/32/32 43/160/39 14/30/30
f 46/34/34 44/161/42 15/35/35
f 45/37/37 42/162/40 13/38/38
f 45/39/37 37/163/31 14/40/30
f 29/42/25 45/164/37 43/43/39
f 29/45/25 9/165/24 42/46/40
f 46/48/34 39/166/36 16/49/18
f 31/51/22 46/167/34 41/52/41
f 31/54/22 11/168/21 44/55/42
f 47/57/32 38/169/33 15/58/35
f 30/60/16 47/170/32 44/61/42
f 30/63/16 10/171/15 43/64/39
f 48/66/29 37/163/31 13/67/38
f 16/69/18 39/172/36 48/70/29
f 15/71/35 38/169/33 48/72/29
f 49/74/26 32/173/28 9/75/24
f 27/77/44 49/174/26 36/78/43
f 27/80/44 6/175/51 35/81/46
f 50/83/23 29/176/25 10/84/15
f 18/86/48 50/177/23 33/87/47
f 18/89/48 2/178/45 36/90/43
f 51/92/20 31/179/22 12/93/27
f 24/95/50 51/180/20 35/96/46
f 24/98/50 8/181/54 34/99/52
f 52/101/17 40/182/19 13/67/38
f 32/103/28 52/183/17 42/104/40
f 32/106/28 12/184/27 41/107/41
f 53/109/14 30/185/16 11/110/21
f 21/112/53 53/186/14 34/113/52
f 21/115/53 4/187/49 33/116/47
f 54/118/13 26/188/9 5/119/8
f 1/121/11 20/189/3 54/122/13
f 3/123/2 23/190/6 54/124/13
f 55/126/10 28/191/12 5/119/8
f 27/77/44 55/192/10 25/128/55
f 27/80/44 2/178/45 17/129/56
f 56/131/7 26/188/9 7/132/5
f 24/95/50 56/193/7 22/134/57
f 24/98/50 6/175/51 25/135/55
f 57/137/4 23/190/6 3/138/2
f 21/112/53 57/194/4 19/140/58
f 21/115/53 8/181/54 22/141/57
f 58/143/1 20/195/3 1/144/11
f 18/86/48 58/196/1 17/146/56
f 18/89/48 4/187/49 19/147/58
