# Blender v2.77 (sub 0) OBJ File: ''
# www.blender.org
o Cube.001_Cube.000
v 0.358976 -0.437269 0.198779
v 0.304171 -0.834082 -0.020306
v 0.388917 -0.881932 0.162687
v 0.410372 -0.444571 -0.231513
v 0.613867 -0.854657 -0.264657
v 0.429034 -0.887558 -0.176850
v 0.834367 -0.470610 -0.176260
v 0.857988 -0.865946 0.045697
v 0.768239 -0.906730 -0.136585
v 0.785098 -0.463397 0.244870
v 0.548292 -0.845371 0.290048
v 0.728037 -0.901096 0.203253
v 0.572952 -0.994365 0.014208
v 0.655243 -0.020075 -0.272507
v 0.451965 0.001477 -0.212661
v 0.796000 -0.020198 0.225200
v 0.589668 -0.010790 0.282199
v 0.899364 -0.031364 0.037847
v 0.406382 0.008595 0.175680
v 0.345547 0.000499 -0.028156
v 0.843016 -0.027669 -0.169090
v 0.888842 -0.450579 0.043083
v 0.565944 -0.429654 0.303813
v 0.635599 -0.439333 -0.285007
v 0.302067 -0.417906 -0.026792
v 0.623398 -0.005381 0.004814
vt 0.0000 0.0000
vt 1.0000 1.0000
vt 0.0000 1.0000
vt 0.0000 0.0000
vt 1.0000 1.0000
vt 0.0000 1.0000
vt 0.0000 0.0000
vt 1.0000 1.0000
vt 0.0000 1.0000
vt 0.0000 0.0000
vt 1.0000 1.0000
vt 0.0000 1.0000
vt 0.0000 0.0000
vt 1.0000 0.0000
vt 0.0000 1.0000
vt 0.0000 0.0000
vt 0.0000 0.0000
vt 1.0000 1.0000
vt 1.0000 0.0000
vt 0.0000 1.0000
vt 0.0000 0.0000
vt 1.0000 0.0000
vt 0.0000 0.0000
vt 1.0000 0.0000
vt 0.0000 1.0000
vt 0.0000 0.0000
vt 0.0000 0.0000
vt 1.0000 1.0000
vt 0.0000 1.0000
vt 1.0000 0.0000
vt 0.0000 1.0000
vt 0.0000 0.0000
vt 1.0000 0.0000
vt 0.0000 1.0000
vt 0.0000 0.0000
vt 0.0000 0.0000
vt 1.0000 1.0000
vt 0.0000 1.0000
vt 1.0000 0.0000
vt 0.0000 1.0000
vt 0.0000 0.0000
vt 1.0000 0.0000
vt 0.0000 1.0000
vt 0.0000 0.0000
vt 0.0000 0.0000
vt 1.0000 1.0000
vt 0.0000 1.0000
vt 1.0000 0.0000
vt 0.0000 1.0000
vt 0.0000 0.0000
vt 1.0000 0.0000
vt 0.0000 1.0000
vt 0.0000 0.0000
vt 0.0000 0.0000
vt 1.0000 1.0000
vt 0.0000 1.0000
vt 1.0000 0.0000
vt 1.0000 0.0000
vt 1.0000 0.0000
vt 1.0000 0.0000
vt 1.0000 0.0000
vt 1.0000 1.0000
vt 1.0000 0.0000
vt 1.0000 1.0000
vt 1.0000 1.0000
vt 1.0000 1.0000
vt 1.0000 0.0000
vt 1.0000 1.0000
vt 1.0000 0.0000
vt 1.0000 1.0000
vt 1.0000 0.0000
vt 1.0000 1.0000
vt 1.0000 1.0000
vt 1.0000 0.0000
vt 1.0000 0.0000
vn -0.7810 0.0360 0.6235
vn -0.9029 -0.4179 -0.1006
vn -0.6476 -0.5848 0.4886
vn -0.6124 0.0139 -0.7904
vn 0.0838 -0.4725 -0.8773
vn -0.5186 -0.6016 -0.6076
vn 0.7888 -0.0589 -0.6118
vn 0.8593 -0.4997 0.1091
vn 0.5833 -0.6536 -0.4822
vn 0.6256 -0.0370 0.7793
vn -0.1249 -0.4455 0.8865
vn 0.4517 -0.6365 0.6252
vn -0.0577 -0.9983 0.0099
vn 0.9923 -0.0413 0.1169
vn 0.5134 0.6181 0.5952
vn 0.8070 0.5843 0.0860
vn -0.1076 0.0216 0.9940
vn 0.1273 -0.0089 -0.9918
vn 0.6417 0.5977 -0.4806
vn 0.1267 0.6139 -0.7791
vn -0.9913 0.0559 -0.1192
vn -0.4251 0.6791 -0.5984
vn -0.7381 0.6675 -0.0982
vn -0.5492 0.6984 0.4589
vn -0.0560 0.6388 0.7673
vn 0.0668 0.9977 -0.0097
s 1
f 1/1/1 2/2/2 3/3/3
f 4/4/4 5/5/5 6/6/6
f 7/7/7 8/8/8 9/9/9
f 10/10/10 11/11/11 12/12/12
f 13/13/13 5/5/5 9/9/9
f 13/14/13 8/15/8 12/16/12
f 11/17/11 13/18/13 12/12/12
f 2/19/2 13/20/13 3/21/3
f 10/22/10 8/15/8 22/23/14
f 16/24/15 22/25/14 18/26/16
f 16/27/15 23/28/17 10/29/10
f 7/30/7 5/31/5 24/32/18
f 21/33/19 24/34/18 14/35/20
f 21/36/19 22/37/14 7/38/7
f 4/39/4 2/40/2 25/41/21
f 15/42/22 25/43/21 20/44/23
f 15/45/22 24/46/18 4/47/4
f 1/48/1 11/49/11 23/50/17
f 19/51/24 23/52/17 17/53/25
f 19/54/24 25/55/21 1/56/1
f 1/1/1 25/57/21 2/2/2
f 4/4/4 24/58/18 5/5/5
f 7/7/7 22/59/14 8/8/8
f 10/10/10 23/60/17 11/11/11
f 13/13/13 6/61/6 5/5/5
f 13/14/13 9/62/9 8/15/8
f 11/17/11 3/63/3 13/18/13
f 2/19/2 6/64/6 13/20/13
f 10/22/10 12/65/12 8/15/8
f 16/24/15 10/66/10 22/25/14
f 16/27/15 17/67/25 23/28/17
f 7/30/7 9/62/9 5/31/5
f 21/33/19 7/68/7 24/34/18
f 21/36/19 18/69/16 22/37/14
f 4/39/4 6/64/6 2/40/2
f 15/42/22 4/70/4 25/43/21
f 15/45/22 14/71/20 24/46/18
f 1/48/1 3/72/3 11/49/11
f 19/51/24 1/73/1 23/52/17
f 19/54/24 20/74/23 25/55/21
f 15/42/22 20/44/23 26/75/26
f 19/51/24 17/53/25 26/75/26
f 14/71/20 15/45/22 26/75/26
f 21/33/19 14/35/20 26/75/26
f 17/67/25 16/27/15 26/75/26
f 16/24/15 18/26/16 26/75/26
f 18/69/16 21/36/19 26/75/26
f 20/74/23 19/54/24 26/75/26
