# Blender v2.76 (sub 0) OBJ File: ''
# www.blender.org
o Sphere
v -0.500000 1.119834 0.000000
v -0.866025 1.485860 0.000000
v -0.663414 1.485860 -0.493479
v -0.766044 1.985860 -0.569820
v -0.173648 1.985860 -0.873015
v -0.383022 2.851885 -0.284910
v -0.086824 2.851885 -0.436507
v -0.150384 2.485860 -0.756053
v -0.383022 1.119834 -0.284910
v -0.150384 1.485860 -0.756053
v -0.663414 2.485860 -0.493479
v 0.500000 1.985860 -0.767716
v 0.433012 1.485860 -0.664862
v 0.250000 2.851885 -0.383858
v 0.250000 1.119834 -0.383858
v 0.433012 2.485860 -0.664862
v 0.939692 1.985860 -0.303195
v 0.813797 1.485860 -0.262575
v 0.469846 2.851885 -0.151597
v 0.469846 1.119834 -0.151597
v 0.813797 2.485860 -0.262575
v 0.469846 2.851885 0.151597
v 0.813797 2.485860 0.262574
v 0.813797 1.485860 0.262574
v 0.469846 1.119834 0.151597
v 0.939692 1.985860 0.303195
v 0.433013 1.485860 0.664862
v 0.433013 2.485860 0.664862
v 0.500000 1.985860 0.767716
v 0.250000 2.851885 0.383858
v 0.250000 1.119834 0.383858
v -0.150384 1.485860 0.756053
v -0.150384 2.485860 0.756053
v -0.173648 1.985860 0.873015
v -0.086824 2.851885 0.436507
v -0.663414 1.485860 0.493479
v -0.383022 1.119834 0.284910
v -0.663414 2.485860 0.493479
v -0.766044 1.985860 0.569820
v -0.383022 2.851885 0.284910
v -0.866025 2.485860 0.000000
v -0.500000 2.851885 0.000000
v 0.000000 2.985860 0.000000
v 0.000000 0.985860 0.000000
v -1.000000 1.985860 0.000000
v -0.086824 1.119834 -0.436508
v -0.086824 1.119834 0.436508
vt 0.000000 0.000000
vt 1.000000 0.000000
vt 1.000000 1.000000
vn -0.544800 -0.838500 -0.000000
vn -0.880200 -0.474600 -0.000000
vn -0.653700 -0.461200 -0.600000
vn -0.739500 0.000000 -0.673100
vn -0.159900 0.000000 -0.987100
vn -0.405900 0.829800 -0.383000
vn -0.089000 0.818500 -0.567500
vn -0.142400 0.443600 -0.884900
vn -0.405900 -0.829800 -0.383000
vn -0.142400 -0.443600 -0.884900
vn -0.653700 0.461200 -0.600000
vn 0.469100 0.000000 -0.883200
vn 0.416300 -0.450500 -0.789800
vn 0.259500 0.822900 -0.505500
vn 0.259500 -0.822900 -0.505500
vn 0.416300 0.450500 -0.789800
vn 0.930400 0.000000 -0.366500
vn 0.819800 -0.470800 -0.325900
vn 0.507800 0.836000 -0.207800
vn 0.507800 -0.836000 -0.207800
vn 0.819800 0.470800 -0.325900
vn 0.507800 0.836000 0.207800
vn 0.819800 0.470800 0.325900
vn 0.819800 -0.470800 0.325900
vn 0.507800 -0.836000 0.207800
vn 0.930400 -0.000000 0.366500
vn 0.416300 -0.450500 0.789800
vn 0.416300 0.450500 0.789800
vn 0.469100 -0.000000 0.883200
vn 0.259500 0.822900 0.505500
vn 0.259500 -0.822900 0.505500
vn -0.142400 -0.443600 0.884900
vn -0.142400 0.443600 0.884900
vn -0.159900 -0.000000 0.987100
vn -0.089000 0.818500 0.567500
vn -0.653700 -0.461200 0.600000
vn -0.405900 -0.829800 0.383000
vn -0.653700 0.461200 0.600000
vn -0.739500 -0.000000 0.673100
vn -0.405900 0.829800 0.383000
vn -0.880200 0.474600 0.000000
vn -0.544800 0.838500 0.000000
vn 0.000000 1.000000 0.000000
vn 0.000000 -1.000000 -0.000000
vn -1.000000 0.000000 -0.000000
vn -0.089000 -0.818500 -0.567500
vn -0.089000 -0.818500 0.567500
s 1
f 1/1/1 2/2/2 3/3/3
f 3/1/3 4/2/4 5/3/5
f 6/1/6 7/2/7 8/3/8
f 9/1/9 3/2/3 10/3/10
f 11/1/11 8/2/8 5/3/5
f 5/1/5 12/2/12 13/3/13
f 8/1/8 7/2/7 14/3/14
f 10/1/10 13/2/13 15/3/15
f 5/1/5 8/2/8 16/3/16
f 12/1/12 17/2/17 18/3/18
f 16/1/16 14/2/14 19/3/19
f 13/1/13 18/2/18 20/3/20
f 12/1/12 16/2/16 21/3/21
f 19/1/19 22/2/22 23/3/23
f 18/1/18 24/2/24 25/3/25
f 21/1/21 23/2/23 26/3/26
f 17/1/17 26/2/26 24/3/24
f 25/1/25 24/2/24 27/3/27
f 23/1/23 28/2/28 29/3/29
f 24/1/24 26/2/26 29/3/29
f 22/1/22 30/2/30 28/3/28
f 31/1/31 27/2/27 32/3/32
f 28/1/28 33/2/33 34/3/34
f 27/1/27 29/2/29 34/3/34
f 30/1/30 35/2/35 33/3/33
f 32/1/32 36/2/36 37/3/37
f 34/1/34 33/2/33 38/3/38
f 34/1/34 39/2/39 36/3/36
f 33/1/33 35/2/35 40/3/40
f 39/1/39 38/2/38 41/3/41
f 41/1/41 11/2/11 4/3/4
f 42/1/42 43/2/43 6/3/6
f 44/1/44 1/2/1 9/3/9
f 2/1/2 45/2/45 4/3/4
f 42/1/42 6/2/6 11/3/11
f 44/1/44 9/2/9 46/3/46
f 6/1/6 43/2/43 7/3/7
f 44/1/44 46/2/46 15/3/15
f 7/1/7 43/2/43 14/3/14
f 14/1/14 43/2/43 19/3/19
f 44/1/44 15/2/15 20/3/20
f 19/1/19 43/2/43 22/3/22
f 44/1/44 20/2/20 25/3/25
f 22/1/22 43/2/43 30/3/30
f 44/1/44 25/2/25 31/3/31
f 30/1/30 43/2/43 35/3/35
f 44/1/44 31/2/31 47/3/47
f 35/1/35 43/2/43 40/3/40
f 44/1/44 47/2/47 37/3/37
f 36/1/36 2/2/2 1/3/1
f 40/1/40 43/2/43 42/3/42
f 44/1/44 37/2/37 1/3/1
f 39/1/39 45/2/45 2/3/2
f 38/1/38 40/2/40 42/3/42
f 9/1/9 1/2/1 3/3/3
f 10/1/10 3/2/3 5/3/5
f 11/1/11 6/2/6 8/3/8
f 46/1/46 9/2/9 10/3/10
f 4/1/4 11/2/11 5/3/5
f 10/1/10 5/2/5 13/3/13
f 16/1/16 8/2/8 14/3/14
f 46/1/46 10/2/10 15/3/15
f 12/1/12 5/2/5 16/3/16
f 13/1/13 12/2/12 18/3/18
f 21/1/21 16/2/16 19/3/19
f 15/1/15 13/2/13 20/3/20
f 17/1/17 12/2/12 21/3/21
f 21/1/21 19/2/19 23/3/23
f 20/1/20 18/2/18 25/3/25
f 17/1/17 21/2/21 26/3/26
f 18/1/18 17/2/17 24/3/24
f 31/1/31 25/2/25 27/3/27
f 26/1/26 23/2/23 29/3/29
f 27/1/27 24/2/24 29/3/29
f 23/1/23 22/2/22 28/3/28
f 47/1/47 31/2/31 32/3/32
f 29/1/29 28/2/28 34/3/34
f 32/1/32 27/2/27 34/3/34
f 28/1/28 30/2/30 33/3/33
f 47/1/47 32/2/32 37/3/37
f 39/1/39 34/2/34 38/3/38
f 32/1/32 34/2/34 36/3/36
f 38/1/38 33/2/33 40/3/40
f 45/1/45 39/2/39 41/3/41
f 45/1/45 41/2/41 4/3/4
f 3/1/3 2/2/2 4/3/4
f 41/1/41 42/2/42 11/3/11
f 37/1/37 36/2/36 1/3/1
f 36/1/36 39/2/39 2/3/2
f 41/1/41 38/2/38 42/3/42
