# Blender v2.76 (sub 0) OBJ File: ''
# www.blender.org
o Cube.002_Cube.000
v -1.028716 -0.735996 0.322575
v -1.279569 -0.708205 0.066350
v -1.342349 -1.554176 0.031885
v -0.643065 0.093990 0.099906
v -1.137223 -0.256420 0.082121
v -0.918787 -0.280620 0.305233
v -0.772231 -0.744134 0.070583
v -0.913883 -0.263507 -0.137306
v -0.695447 -0.287707 0.085807
v -0.592427 -0.058660 0.208644
v -0.639098 -0.017748 -0.058803
v -0.588459 -0.170398 0.049934
v -1.023084 -0.716343 -0.185641
v -1.057561 -1.563213 -0.247913
v -0.779027 -1.594071 0.036585
v -1.063814 -1.585034 0.316383
vt 0.000000 0.000000
vt 1.000000 0.000000
vt 1.000000 1.000000
vn -0.713000 0.024400 0.700700
vn -0.494000 0.668400 0.556100
vn 0.691700 -0.140000 0.708500
vn 0.706100 -0.095400 -0.701700
vn -0.690500 0.193200 0.697000
vn 0.565200 -0.572700 0.593800
vn 0.269400 -0.497800 -0.824400
vn -0.676900 0.237600 -0.696700
vn -0.487400 0.708200 -0.510800
vn 0.965200 0.224700 -0.134100
vn -0.070300 -0.996800 -0.039300
vn -0.697200 0.080800 -0.712300
vn 0.699900 -0.034100 0.713500
vn 0.715600 0.022200 -0.698200
vn -0.127200 0.547100 0.827300
vn 0.734200 -0.546400 0.403000
vn 0.604500 -0.470500 -0.642800
vn -0.483400 0.707900 -0.514900
s off
f 1/1/1 2/2/1 3/3/1
f 4/1/2 5/2/2 6/3/2
f 6/1/3 1/2/3 7/3/3
f 8/1/4 9/2/4 7/3/4
f 5/1/5 2/2/5 1/3/5
f 10/1/6 6/2/6 9/3/6
f 11/1/7 12/2/7 9/3/7
f 5/1/8 8/2/8 13/3/8
f 4/1/9 11/2/9 8/3/9
f 4/1/10 10/2/10 12/3/10
f 14/1/11 15/2/11 16/3/11
f 13/1/12 14/2/12 3/3/12
f 7/1/13 1/2/13 16/3/13
f 7/1/14 15/2/14 14/3/14
f 16/1/1 1/2/1 3/3/1
f 10/1/15 4/2/15 6/3/15
f 9/1/3 6/2/3 7/3/3
f 13/1/4 8/2/4 7/3/4
f 6/1/5 5/2/5 1/3/5
f 12/1/16 10/2/16 9/3/16
f 8/1/17 11/2/17 9/3/17
f 2/1/8 5/2/8 13/3/8
f 5/1/18 4/2/18 8/3/18
f 11/1/10 4/2/10 12/3/10
f 3/1/11 14/2/11 16/3/11
f 2/1/12 13/2/12 3/3/12
f 15/1/13 7/2/13 16/3/13
f 13/1/14 7/2/14 14/3/14
