# Blender v2.76 (sub 0) OBJ File: ''
# www.blender.org
o Cube_Cube.001
v -0.353650 -1.264506 -0.253590
v -0.119222 -1.264506 0.019162
v -0.091238 -2.113497 0.021277
v -0.356126 -0.490391 -0.220819
v -0.151992 -0.490391 0.016685
v -0.151992 -0.803567 0.016685
v -0.356126 -0.803567 -0.220819
v -0.626402 -1.264506 -0.019162
v -0.389497 -0.803567 0.220819
v -0.593631 -0.803567 -0.016686
v -0.593631 -0.490391 -0.016686
v -0.391974 -1.264506 0.253590
v -0.389497 -0.490391 0.220819
v -0.394088 -2.113497 0.281574
v -0.654386 -2.113497 -0.021277
v -0.351536 -2.113498 -0.281574
vt 0.000000 0.000000
vt 1.000000 0.000000
vt 1.000000 1.000000
vn 0.075200 0.051600 -0.995800
vn 0.995800 0.051600 0.075200
vn 0.822700 -0.565100 0.062200
vn 0.061500 0.577400 -0.814200
vn 0.814200 0.577400 0.061500
vn 0.996500 0.036200 0.075300
vn 0.075300 0.036200 -0.996500
vn -0.995800 0.051600 -0.075200
vn -0.075300 0.036200 0.996500
vn -0.996500 0.036200 -0.075300
vn -0.814200 0.577400 -0.061500
vn -0.075200 0.051600 0.995800
vn -0.061500 0.577400 0.814200
vn -0.062200 -0.565100 0.822700
vn -0.822700 -0.565100 -0.062200
vn 0.062200 -0.565100 -0.822700
s 1
f 1/1/1 2/2/2 3/3/3
f 4/1/4 5/2/5 6/3/6
f 7/1/7 1/2/1 8/3/8
f 9/1/9 10/2/10 8/3/8
f 7/1/7 6/2/6 2/3/2
f 4/1/4 7/2/7 10/3/10
f 11/1/11 10/2/10 9/3/9
f 9/1/9 12/2/12 2/3/2
f 5/1/5 13/2/13 9/3/9
f 5/1/5 4/2/4 11/3/11
f 14/1/14 15/2/15 16/3/16
f 12/1/12 14/2/14 3/3/3
f 1/1/1 16/2/16 15/3/15
f 8/1/8 15/2/15 14/3/14
f 16/1/16 1/2/1 3/3/3
f 7/1/7 4/2/4 6/3/6
f 10/1/10 7/2/7 8/3/8
f 12/1/12 9/2/9 8/3/8
f 1/1/1 7/2/7 2/3/2
f 11/1/11 4/2/4 10/3/10
f 13/1/13 11/2/11 9/3/9
f 6/1/6 9/2/9 2/3/2
f 6/1/6 5/2/5 9/3/9
f 13/1/13 5/2/5 11/3/11
f 3/1/3 14/2/14 16/3/16
f 2/1/2 12/2/12 3/3/3
f 8/1/8 1/2/1 15/3/15
f 12/1/12 8/2/8 14/3/14
