# Blender v2.77 (sub 0) OBJ File: ''
# www.blender.org
o Cylinder
v -0.000000 2.004791 -1.000000
v 0.000000 2.004791 1.000000
v 0.447075 1.869818 -1.000000
v 0.447075 1.869818 1.000000
v 0.684958 1.528056 -1.000000
v 0.684958 1.528057 1.000000
v 0.602342 1.139419 -1.000000
v 0.602342 1.139419 1.000000
v 0.237883 0.885754 -1.000000
v 0.237883 0.885754 1.000000
v -0.237884 0.885754 -1.000000
v -0.237884 0.885754 1.000000
v -0.602342 1.139419 -1.000000
v -0.602342 1.139419 1.000000
v -0.684958 1.528056 -1.000000
v -0.684958 1.528057 1.000000
v -0.447075 1.869818 -1.000000
v -0.447075 1.869818 1.000000
vt 1.0000 0.0000
vt 0.0000 1.0000
vt 0.0000 0.0000
vt 1.0000 0.0000
vt 0.0000 1.0000
vt 0.0000 0.0000
vt 1.0000 0.0000
vt 0.0000 1.0000
vt 0.0000 0.0000
vt 1.0000 0.0000
vt 0.0000 1.0000
vt 0.0000 0.0000
vt 1.0000 0.0000
vt 0.0000 1.0000
vt 0.0000 0.0000
vt 1.0000 0.0000
vt 0.0000 1.0000
vt 0.0000 0.0000
vt 1.0000 0.0000
vt 0.0000 1.0000
vt 0.0000 0.0000
vt 0.8214 0.8830
vt 0.0670 0.2500
vt 0.5000 1.0000
vt 1.0000 0.0000
vt 0.0000 1.0000
vt 0.0000 0.0000
vt 1.0000 0.0000
vt 0.0000 1.0000
vt 0.0000 0.0000
vt 0.6710 0.0302
vt 0.3290 0.0302
vt 0.5000 1.0000
vt 1.0000 1.0000
vt 1.0000 1.0000
vt 1.0000 1.0000
vt 1.0000 1.0000
vt 1.0000 1.0000
vt 1.0000 1.0000
vt 1.0000 1.0000
vt 0.1786 0.8830
vt 0.0076 0.5868
vt 0.9924 0.5868
vt 0.3290 0.0302
vt 0.9330 0.2500
vt 0.6710 0.0302
vt 1.0000 1.0000
vt 1.0000 1.0000
vt 0.1786 0.8830
vt 0.8214 0.8830
vt 0.9924 0.5868
vt 0.9330 0.2500
vt 0.0670 0.2500
vt 0.0076 0.5868
vn 0.0000 0.7621 0.6475
vn 0.4514 0.6217 -0.6401
vn 0.0000 0.7621 -0.6475
vn 0.4514 0.6217 0.6401
vn 0.7631 0.1541 -0.6276
vn 0.7631 0.1541 0.6276
vn 0.6450 -0.4282 -0.6329
vn 0.6450 -0.4282 0.6329
vn 0.2286 -0.7287 -0.6455
vn 0.2286 -0.7287 0.6455
vn -0.2286 -0.7287 -0.6455
vn -0.2286 -0.7287 0.6455
vn -0.6450 -0.4282 -0.6329
vn -0.6450 -0.4282 0.6329
vn -0.7631 0.1541 -0.6276
vn -0.7631 0.1541 0.6276
vn -0.4514 0.6217 -0.6401
vn -0.4514 0.6217 0.6401
s 1
f 2/1/1 3/2/2 1/3/3
f 4/4/4 5/5/5 3/6/2
f 6/7/6 7/8/7 5/9/5
f 8/10/8 9/11/9 7/12/7
f 10/13/10 11/14/11 9/15/9
f 12/16/12 13/17/13 11/18/11
f 14/19/14 15/20/15 13/21/13
f 2/22/1 10/23/10 4/24/4
f 16/25/16 17/26/17 15/27/15
f 18/28/18 1/29/3 17/30/17
f 9/31/9 11/32/11 1/33/3
f 2/1/1 4/34/4 3/2/2
f 4/4/4 6/35/6 5/5/5
f 6/7/6 8/36/8 7/8/7
f 8/10/8 10/37/10 9/11/9
f 10/13/10 12/38/12 11/14/11
f 12/16/12 14/39/14 13/17/13
f 14/19/14 16/40/16 15/20/15
f 6/41/6 4/24/4 8/42/8
f 2/22/1 18/43/18 12/44/12
f 16/45/16 14/46/14 18/43/18
f 12/44/12 10/23/10 2/22/1
f 8/42/8 4/24/4 10/23/10
f 18/43/18 14/46/14 12/44/12
f 16/25/16 18/47/18 17/26/17
f 18/28/18 2/48/1 1/29/3
f 17/49/17 1/33/3 11/32/11
f 3/50/2 5/51/5 7/52/7
f 7/52/7 9/31/9 3/50/2
f 11/32/11 13/53/13 17/49/17
f 15/54/15 17/49/17 13/53/13
f 3/50/2 9/31/9 1/33/3
