# Blender v2.77 (sub 0) OBJ File: ''
# www.blender.org
o Cylinder.002_Cylinder.003
v -0.399592 -0.000710 0.595707
v -0.399592 1.161038 0.595707
v -0.320496 -0.000710 0.624495
v -0.320496 1.161038 0.624495
v -0.278410 -0.000710 0.697390
v -0.278410 1.161038 0.697390
v -0.293027 -0.000710 0.780283
v -0.293027 1.161038 0.780283
v -0.357506 -0.000710 0.834388
v -0.357506 1.161038 0.834388
v -0.441677 -0.000710 0.834388
v -0.441677 1.161038 0.834388
v -0.506157 -0.000710 0.780283
v -0.506157 1.161038 0.780283
v -0.520773 -0.000710 0.697390
v -0.520773 1.161038 0.697390
v -0.478687 -0.000710 0.624495
v -0.478687 1.161038 0.624495
vt 1.0000 0.0000
vt 0.0000 1.0000
vt 0.0000 0.0000
vt 1.0000 0.0000
vt 0.0000 1.0000
vt 0.0000 0.0000
vt 1.0000 0.0000
vt 0.0000 1.0000
vt 0.0000 0.0000
vt 1.0000 0.0000
vt 0.0000 1.0000
vt 0.0000 0.0000
vt 1.0000 0.0000
vt 0.0000 1.0000
vt 0.0000 0.0000
vt 1.0000 0.0000
vt 0.0000 1.0000
vt 0.0000 0.0000
vt 1.0000 0.0000
vt 0.0000 1.0000
vt 0.0000 0.0000
vt 0.8214 0.8830
vt 0.3290 0.0302
vt 0.0076 0.5868
vt 1.0000 0.0000
vt 0.0000 1.0000
vt 0.0000 0.0000
vt 1.0000 0.0000
vt 0.0000 1.0000
vt 0.0000 0.0000
vt 0.8214 0.8830
vt 0.0670 0.2500
vt 0.0076 0.5868
vt 1.0000 1.0000
vt 1.0000 1.0000
vt 1.0000 1.0000
vt 1.0000 1.0000
vt 1.0000 1.0000
vt 1.0000 1.0000
vt 1.0000 1.0000
vt 0.1786 0.8830
vt 0.5000 1.0000
vt 0.9924 0.5868
vt 0.9330 0.2500
vt 0.6710 0.0302
vt 0.0670 0.2500
vt 1.0000 1.0000
vt 1.0000 1.0000
vt 0.1786 0.8830
vt 0.5000 1.0000
vt 0.9924 0.5868
vt 0.9330 0.2500
vt 0.6710 0.0302
vt 0.3290 0.0302
vn 0.0000 0.6376 -0.7703
vn 0.4952 -0.6376 -0.5901
vn 0.0000 -0.6376 -0.7703
vn 0.4952 0.6376 -0.5901
vn 0.7586 -0.6376 -0.1338
vn 0.7586 0.6376 -0.1338
vn 0.6671 -0.6376 0.3852
vn 0.6671 0.6376 0.3852
vn 0.2635 -0.6376 0.7239
vn 0.2635 0.6376 0.7239
vn -0.2635 -0.6376 0.7239
vn -0.2635 0.6376 0.7239
vn -0.6671 -0.6376 0.3852
vn -0.6671 0.6376 0.3852
vn -0.7586 -0.6376 -0.1338
vn -0.7586 0.6376 -0.1338
vn -0.4952 -0.6376 -0.5901
vn -0.4952 0.6376 -0.5901
s 1
f 2/1/1 3/2/2 1/3/3
f 4/4/4 5/5/5 3/6/2
f 6/7/6 7/8/7 5/9/5
f 8/10/8 9/11/9 7/12/7
f 10/13/10 11/14/11 9/15/9
f 12/16/12 13/17/13 11/18/11
f 14/19/14 15/20/15 13/21/13
f 2/22/1 12/23/12 8/24/8
f 16/25/16 17/26/17 15/27/15
f 18/28/18 1/29/3 17/30/17
f 3/31/2 13/32/13 15/33/15
f 2/1/1 4/34/4 3/2/2
f 4/4/4 6/35/6 5/5/5
f 6/7/6 8/36/8 7/8/7
f 8/10/8 10/37/10 9/11/9
f 10/13/10 12/38/12 11/14/11
f 12/16/12 14/39/14 13/17/13
f 14/19/14 16/40/16 15/20/15
f 6/41/6 4/42/4 2/22/1
f 2/22/1 18/43/18 16/44/16
f 16/44/16 14/45/14 2/22/1
f 12/23/12 10/46/10 8/24/8
f 8/24/8 6/41/6 2/22/1
f 2/22/1 14/45/14 12/23/12
f 16/25/16 18/47/18 17/26/17
f 18/28/18 2/48/1 1/29/3
f 17/49/17 1/50/3 15/33/15
f 3/31/2 5/51/5 7/52/7
f 7/52/7 9/53/9 11/54/11
f 11/54/11 13/32/13 3/31/2
f 15/33/15 1/50/3 3/31/2
f 3/31/2 7/52/7 11/54/11
