# Blender v2.77 (sub 0) OBJ File: ''
# www.blender.org
o Cylinder.005_Cylinder.006
v 0.021600 1.960684 0.631769
v 0.021600 2.302412 1.138563
v 0.218050 1.901400 0.671744
v 0.218050 2.243128 1.178538
v 0.322579 1.751289 0.772963
v 0.322579 2.093017 1.279757
v 0.286276 1.580588 0.888066
v 0.286276 1.922317 1.394859
v 0.126129 1.469171 0.963193
v 0.126129 1.810900 1.469987
v -0.082929 1.469171 0.963193
v -0.082929 1.810900 1.469987
v -0.243076 1.580588 0.888066
v -0.243076 1.922317 1.394859
v -0.279378 1.751289 0.772963
v -0.279378 2.093017 1.279757
v -0.174850 1.901400 0.671744
v -0.174850 2.243128 1.178538
vt 0.0000 0.0000
vt 1.0000 1.0000
vt 0.0000 1.0000
vt 1.0000 0.0000
vt 0.0000 1.0000
vt 0.0000 0.0000
vt 1.0000 0.0000
vt 0.0000 1.0000
vt 0.0000 0.0000
vt 1.0000 0.0000
vt 0.0000 1.0000
vt 0.0000 0.0000
vt 1.0000 0.0000
vt 0.0000 1.0000
vt 0.0000 0.0000
vt 0.0000 0.0000
vt 1.0000 1.0000
vt 0.0000 1.0000
vt 1.0000 0.0000
vt 0.0000 1.0000
vt 0.0000 0.0000
vt 0.9330 0.2500
vt 0.3290 0.0302
vt 0.0076 0.5868
vt 1.0000 0.0000
vt 0.0000 1.0000
vt 0.0000 0.0000
vt 1.0000 0.0000
vt 0.0000 1.0000
vt 0.0000 0.0000
vt 0.8214 0.8830
vt 0.0670 0.2500
vt 0.0076 0.5868
vt 1.0000 0.0000
vt 1.0000 1.0000
vt 1.0000 1.0000
vt 1.0000 1.0000
vt 1.0000 1.0000
vt 1.0000 0.0000
vt 1.0000 1.0000
vt 0.1786 0.8830
vt 0.5000 1.0000
vt 0.8214 0.8830
vt 0.9924 0.5868
vt 0.6710 0.0302
vt 0.0670 0.2500
vt 1.0000 1.0000
vt 1.0000 1.0000
vt 0.1786 0.8830
vt 0.5000 1.0000
vt 0.9924 0.5868
vt 0.9330 0.2500
vt 0.6710 0.0302
vt 0.3290 0.0302
vn 0.0000 0.2822 -0.9593
vn 0.4952 0.8457 0.1987
vn 0.4952 0.1328 -0.8586
vn 0.7586 -0.2456 -0.6034
vn 0.7586 0.4674 0.4539
vn 0.6671 -0.6758 -0.3133
vn 0.6671 0.0371 0.7440
vn 0.2635 -0.9567 -0.1239
vn 0.2635 -0.2437 0.9333
vn -0.2635 -0.9567 -0.1239
vn -0.6671 0.0371 0.7440
vn -0.6671 -0.6758 -0.3133
vn -0.7586 -0.2456 -0.6034
vn -0.7586 0.4674 0.4539
vn -0.2635 -0.2437 0.9333
vn -0.4952 0.1328 -0.8586
vn -0.4952 0.8457 0.1987
vn 0.0000 0.9952 0.0980
s 1
f 1/1/1 4/2/2 3/3/3
f 4/4/2 5/5/4 3/6/3
f 6/7/5 7/8/6 5/9/4
f 8/10/7 9/11/8 7/12/6
f 10/13/9 11/14/10 9/15/8
f 11/16/10 14/17/11 13/18/12
f 14/19/11 15/20/13 13/21/12
f 16/22/14 12/23/15 8/24/7
f 16/25/14 17/26/16 15/27/13
f 18/28/17 1/29/1 17/30/16
f 3/31/3 13/32/12 15/33/13
f 1/1/1 2/34/18 4/2/2
f 4/4/2 6/35/5 5/5/4
f 6/7/5 8/36/7 7/8/6
f 8/10/7 10/37/9 9/11/8
f 10/13/9 12/38/15 11/14/10
f 11/16/10 12/39/15 14/17/11
f 14/19/11 16/40/14 15/20/13
f 6/41/5 4/42/2 8/24/7
f 2/43/18 18/44/17 16/22/14
f 16/22/14 14/45/11 12/23/15
f 12/23/15 10/46/9 8/24/7
f 8/24/7 4/42/2 2/43/18
f 2/43/18 16/22/14 8/24/7
f 16/25/14 18/47/17 17/26/16
f 18/28/17 2/48/18 1/29/1
f 17/49/16 1/50/1 15/33/13
f 3/31/3 5/51/4 7/52/6
f 7/52/6 9/53/8 11/54/10
f 11/54/10 13/32/12 3/31/3
f 15/33/13 1/50/1 3/31/3
f 3/31/3 7/52/6 11/54/10
