# Blender v2.77 (sub 0) OBJ File: ''
# www.blender.org
o polySurface26
v -3.088732 3.728912 1.123704
v -5.447045 2.035972 2.951595
v -1.237646 3.841029 1.970405
v -6.138858 2.735836 0.546543
v -3.478736 0.697821 4.542006
v -2.029870 1.722374 3.852949
v -1.757641 -0.202698 4.791641
v -5.368155 -0.104460 4.661909
v -6.196045 -0.293307 2.057070
v -6.574546 -0.141658 0.832246
v 2.164927 2.299882 -5.647548
v 4.870234 -0.308988 -5.668846
v 1.411986 -0.378338 -5.873686
v 7.513317 1.073649 -3.623486
v 6.324363 1.591522 -4.110106
v 7.150200 1.877564 -3.226562
v 7.881654 -0.373351 -0.353985
v 8.188824 -0.345298 -1.771047
v 6.402885 2.348072 -1.958431
v 3.840382 4.541080 1.647013
v 1.824087 4.817122 2.716784
v 1.458796 4.550638 3.160348
v 6.999557 1.125534 4.490343
v 5.670499 -0.128247 6.924664
v 8.446594 -0.214951 2.745890
v 1.914530 5.799141 0.310334
v 3.135443 4.584232 -0.875821
v 7.410641 1.697626 1.543503
v 0.098818 2.097020 4.758980
v 0.297708 -0.339688 5.127489
v 0.965331 4.706769 2.785126
v 1.602276 3.315288 -4.121898
v 1.728559 5.750566 -0.224359
v -0.517392 4.784568 -1.212917
v 1.210373 5.806252 -0.149993
v -7.087156 2.824430 -2.197998
v -6.553199 2.976613 -4.606916
v -7.287134 -0.246738 -3.621722
v -6.965656 -0.356399 -5.110185
v -5.466704 -0.365285 -6.654232
v -5.052497 2.765190 -6.269217
v -6.152629 3.438604 -4.768116
v -7.916936 -0.216960 -0.295416
v -6.770557 3.251556 -2.124665
v -1.916222 3.605851 -5.970645
v -3.573692 -0.333520 -5.589102
v -0.386849 4.456738 -3.792192
v 0.390545 1.450646 -4.572822
v 1.238456 5.771717 0.296158
v 5.829145 3.483804 -0.592391
v -0.062816 0.601176 -5.765588
v 0.410328 -0.312745 -6.750577
v -0.445985 -0.166591 -6.934111
v -2.082511 -0.290337 -6.608285
v 8.087826 -0.403718 -4.096576
vt 0.5170 0.6916
vt 0.5050 0.8386
vt 0.4348 0.6416
vt 0.6179 0.8010
vt 0.3669 0.8376
vt 0.3568 0.7469
vt 0.2656 0.8083
vt 0.4156 0.9337
vt 0.5633 0.9496
vt 0.6324 0.9373
vt 0.6517 0.3312
vt 0.6414 0.1466
vt 0.7657 0.2952
vt 0.4481 0.1303
vt 0.4977 0.1802
vt 0.4426 0.1723
vt 0.2576 0.1348
vt 0.3276 0.0888
vt 0.4075 0.2325
vt 0.3399 0.4393
vt 0.3399 0.5536
vt 0.1192 0.3658
vt 0.0192 0.4808
vt 0.1106 0.2249
vt 0.4233 0.4835
vt 0.3501 0.5308
vt 0.4423 0.4105
vt 0.2278 0.2785
vt 0.2712 0.6657
vt 0.1726 0.7296
vt 0.3643 0.5631
vt 0.6116 0.4012
vt 0.4425 0.4784
vt 0.5338 0.5458
vt 0.7414 0.7717
vt 0.8027 0.7070
vt 0.8859 0.8250
vt 0.9356 0.7471
vt 0.9433 0.6211
vt 0.8192 0.6298
vt 0.7897 0.6878
vt 0.7303 0.9336
vt 0.7330 0.5310
vt 0.8979 0.5176
vt 0.6258 0.5044
vt 0.7165 0.4003
vt 0.7252 0.7562
vt 0.4354 0.5072
vt 0.4525 0.4999
vt 0.3688 0.3071
vt 0.7783 0.3848
vt 0.8133 0.3394
vt 0.8334 0.3702
vt 0.8768 0.4320
vt 0.4591 0.0457
vn -0.3034 0.9296 0.2095
vn -0.4761 0.6555 0.5861
vn -0.3608 0.8130 0.4570
vn -0.7487 0.5088 0.4249
vn -0.0675 0.4993 0.8638
vn -0.1972 0.5890 0.7837
vn -0.1268 0.2953 0.9470
vn -0.4607 0.3966 0.7940
vn -0.9352 0.1806 0.3047
vn -0.8163 0.1782 0.5495
vn -0.0296 0.6017 -0.7982
vn 0.2933 0.2851 -0.9125
vn -0.0327 0.4032 -0.9145
vn 0.7788 0.4896 -0.3921
vn 0.4023 0.5949 -0.6959
vn 0.6431 0.7336 -0.2198
vn 0.8783 0.4780 0.0013
vn 0.8722 0.4789 0.0991
vn 0.6715 0.7077 -0.2198
vn 0.5255 0.8329 0.1733
vn 0.0604 0.7418 0.6679
vn 0.6188 0.6442 0.4495
vn 0.2209 0.4821 0.8478
vn 0.9109 0.3997 0.1024
vn 0.2173 0.9685 0.1214
vn 0.2362 0.7769 0.5837
vn 0.4768 0.8459 -0.2391
vn 0.7188 0.6904 0.0810
vn -0.3151 0.4365 0.8427
vn -0.2359 0.1265 0.9635
vn -0.2534 0.8440 0.4727
vn 0.2465 0.7727 -0.5849
vn 0.2362 0.8983 -0.3706
vn -0.1863 0.9765 -0.1081
vn -0.9259 0.3728 -0.0607
vn -0.8922 0.3186 -0.3202
vn -0.9671 0.1529 -0.2031
vn -0.8203 0.1818 -0.5423
vn -0.0664 0.0043 -0.9978
vn -0.4360 0.3862 -0.8129
vn -0.4130 0.8461 -0.3369
vn -0.9062 0.2750 0.3211
vn 0.2495 0.3737 -0.8933
vn 0.2490 0.1605 -0.9551
vn -0.0208 0.9841 -0.1766
vn -0.0498 0.4209 -0.9057
vn -0.6573 0.7440 0.1200
vn -0.2657 0.9414 0.2079
vn -0.1834 0.9481 -0.2598
vn 0.5595 0.8270 -0.0550
vn 0.0686 0.8212 -0.5664
vn 0.3634 0.7646 -0.5323
vn 0.0475 0.8276 -0.5593
vn -0.2141 0.8920 -0.3982
vn 0.7666 0.4273 -0.4794
s 1
f 1/1/1 2/2/2 3/3/3
f 1/1/1 4/4/4 2/2/2
f 2/2/2 5/5/5 6/6/6
f 2/2/2 6/6/6 3/3/3
f 7/7/7 5/5/5 8/8/8
f 5/5/5 2/2/2 8/8/8
f 7/7/7 6/6/6 5/5/5
f 2/2/2 9/9/9 8/8/8
f 2/2/2 4/4/4 9/9/9
f 9/9/9 4/4/4 10/10/10
f 11/11/11 12/12/12 13/13/13
f 14/14/14 15/15/15 16/16/16
f 17/17/17 18/18/18 19/19/19
f 18/18/18 14/14/14 16/16/16
f 20/20/20 22/21/21 23/22/22
f 23/22/22 22/21/21 24/23/23
f 23/22/22 24/23/23 25/24/24
f 26/25/25 21/26/26 20/20/20
f 27/27/27 20/20/20 28/28/28
f 29/29/29 30/30/30 24/23/23
f 6/6/6 7/7/7 29/29/29
f 29/29/29 7/7/7 30/30/30
f 29/29/29 31/31/31 3/3/3
f 23/22/22 25/24/24 28/28/28
f 23/22/22 28/28/28 20/20/20
f 27/27/27 32/32/32 33/33/33
f 34/34/34 33/33/33 32/32/32
f 32/32/32 27/27/27 19/19/19
f 36/35/35 37/36/36 38/37/37
f 38/37/37 37/36/36 39/38/38
f 40/39/39 39/38/38 41/40/40
f 41/40/40 37/36/36 42/41/41
f 10/10/10 4/4/4 43/42/42
f 4/4/4 36/35/35 43/42/42
f 41/40/40 45/43/43 40/39/39
f 40/39/39 45/43/43 46/44/44
f 45/43/43 47/45/45 32/32/32
f 32/32/32 48/46/46 45/43/43
f 46/44/44 45/43/43 48/46/46
f 47/45/45 45/43/43 42/41/41
f 45/43/43 41/40/40 42/41/41
f 34/34/34 47/45/45 1/1/1
f 47/45/45 42/41/41 44/47/47
f 47/45/45 44/47/47 1/1/1
f 1/1/1 3/3/3 34/34/34
f 34/34/34 49/48/48 35/49/49
f 28/28/28 19/19/19 50/50/50
f 25/24/24 17/17/17 19/19/19
f 27/27/27 50/50/50 19/19/19
f 32/32/32 19/19/19 11/11/11
f 48/46/46 32/32/32 11/11/11
f 13/13/13 48/46/46 11/11/11
f 19/19/19 28/28/28 25/24/24
f 31/31/31 49/48/48 3/3/3
f 34/34/34 32/32/32 47/45/45
f 27/27/27 28/28/28 50/50/50
f 51/51/51 52/52/52 53/53/53
f 54/54/54 51/51/51 53/53/53
f 6/6/6 29/29/29 3/3/3
f 19/19/19 18/18/18 16/16/16
f 18/18/18 55/55/55 14/14/14
f 15/15/15 55/55/55 12/12/12
f 15/15/15 12/12/12 11/11/11
f 19/19/19 15/15/15 11/11/11
f 51/51/51 46/44/44 48/46/46
f 13/13/13 51/51/51 48/46/46
f 44/47/47 4/4/4 1/1/1
f 36/35/35 38/37/37 43/42/42
f 44/47/47 37/36/36 36/35/35
f 22/21/21 29/29/29 24/23/23
f 26/25/25 27/27/27 33/33/33
f 21/26/26 49/48/48 31/31/31
f 22/21/21 21/26/26 31/31/31
f 33/33/33 49/48/48 26/25/25
f 20/20/20 21/26/26 22/21/21
f 29/29/29 22/21/21 31/31/31
f 34/34/34 35/49/49 33/33/33
f 41/40/40 39/38/38 37/36/36
f 4/4/4 44/47/47 36/35/35
f 34/34/34 3/3/3 49/48/48
f 15/15/15 14/14/14 55/55/55
f 19/19/19 16/16/16 15/15/15
f 51/51/51 54/54/54 46/44/44
f 13/13/13 52/52/52 51/51/51
f 44/47/47 42/41/41 37/36/36
f 26/25/25 20/20/20 27/27/27
f 21/26/26 26/25/25 49/48/48
f 33/33/33 35/49/49 49/48/48
